<svg xmlns="http://www.w3.org/2000/svg" width="356.936" height="168.229" viewBox="0 0 356.936 168.229">
  <g id="bahadurpir_tea_est_ltd" data-name="bahadurpir tea est ltd" transform="translate(0 0)">
    <g id="Group_66" data-name="Group 66" transform="translate(100.6)">
      <g id="Group_64" data-name="Group 64" transform="translate(18.213)">
        <path id="Path_280" data-name="Path 280" d="M557.11,254.268a59.486,59.486,0,1,1-59.473-59.479A59.484,59.484,0,0,1,557.11,254.268Z" transform="translate(-438.138 -194.789)" fill="#00973d"/>
        <g id="Group_63" data-name="Group 63" transform="translate(7.64 19.147)">
          <path id="Path_281" data-name="Path 281" d="M489.291,260.41s-.43-7.256-22.927-26.27c-21.491-21.682-27.072-35.082-27.072-35.082s9.527,5.628,17.147,6.409c12.811,4.581,31.2,17.425,34.09,41.544v14.367h1.715V249.413s-.4-12.506,11.149-27.5c11.573-15.009,33.877-17.511,40.624-22.152,0,0-18.18,25.893-27.674,35.9-9.229,8.044-23.318,20-23.033,27.33.285,7.3.3,26.78.3,26.78h-4.4Z" transform="translate(-439.292 -189.947)" fill="#fff"/>
          <path id="Path_282" data-name="Path 282" d="M451.1,243.575s-4.555-12.672-4.555-15.36c0-2.668.285-13.572,2.886-20.173a63.69,63.69,0,0,0,.146-10.361l2.212,40.717s.265,8.216-.437,11.785C450.672,253.757,451.1,243.575,451.1,243.575Z" transform="translate(-398.548 -197.681)" fill="#fff"/>
        </g>
      </g>
      <g id="Group_65" data-name="Group 65" transform="translate(0 65.625)">
        <path id="Path_283" data-name="Path 283" d="M446.5,204.888a18.035,18.035,0,0,1,.728,2.933,5.126,5.126,0,0,1-.165,3.118,2.525,2.525,0,0,1-2.013,1.576,2.551,2.551,0,0,1-2.681-1.284h-.033a2.827,2.827,0,0,1-2.45,2.489,3.126,3.126,0,0,1-2.562-.669c-.781-.629-1.344-1.807-1.682-3.82a16.961,16.961,0,0,1-.251-2.516Zm-8.964,3.82a7.726,7.726,0,0,0,.106.874c.179,1.053.762,1.9,1.947,1.695,1.132-.179,1.436-1.172,1.245-2.324l-.133-.775Zm5.032-.841.086.768c.219,1.205.867,1.774,1.7,1.609.867-.139,1.225-.794,1.046-1.827a3.438,3.438,0,0,0-.232-.973Z" transform="translate(-435.387 -203.652)" fill="#1a1818"/>
        <path id="Path_284" data-name="Path 284" d="M439.35,209.02l-3.019.159-.708-2.3,11.871-.371.893,2.933-10.017,6.435-.722-2.417,2.582-1.629Zm2.635,1.933,2.125-1.337c.589-.377,1.344-.788,1.966-1.145l-.013-.02c-.688.06-1.562.139-2.258.192l-2.5.132Z" transform="translate(-434.066 -194.53)" fill="#1a1818"/>
        <path id="Path_285" data-name="Path 285" d="M447.518,209.625l-3.992,1.9,1.669,3.456,3.966-1.893.993,2.112-10.335,4.919-.986-2.105,4.317-2.059-1.642-3.463-4.323,2.052-1.006-2.119L446.5,207.52Z" transform="translate(-430.947 -188.859)" fill="#1a1818"/>
        <path id="Path_286" data-name="Path 286" d="M441.1,213.9l-2.867,1.006L436.9,212.9l11.268-3.734,1.682,2.529-7.726,9.03-1.384-2.105,1.967-2.284Zm3.046,1.079,1.668-1.88c.457-.53,1.059-1.159,1.536-1.655l-.006-.033c-.642.252-1.477.609-2.112.827l-2.357.854Z" transform="translate(-426.889 -179.601)" fill="#1a1818"/>
        <path id="Path_287" data-name="Path 287" d="M446.289,210.057a18.753,18.753,0,0,1,2.264,2.178,6.116,6.116,0,0,1,1.926,3.946,5.373,5.373,0,0,1-2.045,4.191,6.153,6.153,0,0,1-4.595,1.834,6.969,6.969,0,0,1-4.284-2.542,17.576,17.576,0,0,1-1.635-2.072Zm-5.389,8a3.9,3.9,0,0,0,.5.629c1.4,1.583,3.29,1.728,5.329-.1,1.774-1.6,1.86-3.363.536-4.853a7,7,0,0,0-.8-.715Z" transform="translate(-421.145 -174.599)" fill="#1a1818"/>
        <path id="Path_288" data-name="Path 288" d="M446.9,212.654l-4.184,5.078c-1.238,1.516-1.364,2.728-.437,3.476.933.781,2.052.47,3.35-1.086l4.2-5.091,1.787,1.483-4.091,4.959c-2.251,2.728-4.542,3.006-6.627,1.278-2.006-1.648-2.158-3.846.159-6.667l4.059-4.932Z" transform="translate(-413.095 -168.45)" fill="#1a1818"/>
        <path id="Path_289" data-name="Path 289" d="M446.385,212.1a16.707,16.707,0,0,1,2.781,1.43,4.883,4.883,0,0,1,2.357,2.516,3.078,3.078,0,0,1-.444,2.536,3,3,0,0,1-3.032,1.443l-.013.04a2.932,2.932,0,0,1,.053,2.549c-.41,1.278-.927,2.715-1,3.2l-2.013-1.251a15.727,15.727,0,0,1,.761-2.648c.53-1.364.358-1.933-.424-2.456l-.6-.364-2.377,3.84-1.953-1.212Zm-.6,5.409.775.483a1.627,1.627,0,0,0,2.436-.437,1.513,1.513,0,0,0-.609-2.264,4.4,4.4,0,0,0-.96-.463Z" transform="translate(-406.767 -163.105)" fill="#1a1818"/>
        <path id="Path_290" data-name="Path 290" d="M446.429,212.767a17.011,17.011,0,0,1,2.986,1.086,4.542,4.542,0,0,1,2.476,2.138,3.453,3.453,0,0,1-.086,2.853,4.08,4.08,0,0,1-1.986,2.105,4.542,4.542,0,0,1-3.562-.3,3.651,3.651,0,0,1-.688-.364l-1.7,3.727-2.092-.953Zm-.027,5.687a2.737,2.737,0,0,0,.669.391,1.811,1.811,0,0,0,2.608-.867,1.61,1.61,0,0,0-.98-2.291,4.107,4.107,0,0,0-.9-.311Z" transform="translate(-399.483 -159.367)" fill="#1a1818"/>
        <path id="Path_291" data-name="Path 291" d="M447.774,213.908l-1.88,6.343c-.563,1.86-.218,3.026.933,3.363,1.172.358,2.1-.371,2.661-2.3l1.88-6.329,2.231.669-1.827,6.15c-1.006,3.383-3.045,4.542-5.6,3.774-2.489-.742-3.509-2.708-2.483-6.21l1.847-6.111Z" transform="translate(-390.949 -156.602)" fill="#1a1818"/>
        <path id="Path_292" data-name="Path 292" d="M446.5,213.69a17.755,17.755,0,0,1,3.112.219,4.913,4.913,0,0,1,3.158,1.4,3.1,3.1,0,0,1,.589,2.516,3.015,3.015,0,0,1-2.238,2.49v.053a2.964,2.964,0,0,1,1.046,2.337,28.51,28.51,0,0,0,.338,3.324l-2.377-.377a17.337,17.337,0,0,1-.3-2.734c-.046-1.456-.437-1.907-1.384-2.066l-.669-.113L447.1,225.2l-2.3-.357Zm1.536,5.217.927.119a1.635,1.635,0,0,0,2.086-1.344,1.525,1.525,0,0,0-1.47-1.834,6.956,6.956,0,0,0-1.066-.08Z" transform="translate(-382.469 -154.213)" fill="#1a1818"/>
        <path id="Path_293" data-name="Path 293" d="M449.382,216.1l-2.781.04-.033-2.172,7.938-.119.013,2.171-2.794.04.139,9.275-2.337.027Z" transform="translate(-372.543 -153.292)" fill="#1a1818"/>
        <path id="Path_294" data-name="Path 294" d="M454.76,220.318l-3.76.444.3,2.7,4.224-.516.265,2.132-6.534.768-1.364-11.368,6.3-.755.265,2.092-3.985.49.265,2.377,3.76-.463Z" transform="translate(-365.124 -153.988)" fill="#1a1818"/>
        <path id="Path_295" data-name="Path 295" d="M451.663,222.5l.02,3.026-2.337.589.212-11.877,2.973-.741,5.925,10.315-2.45.609-1.489-2.648Zm2.039-2.516-1.205-2.2c-.351-.629-.741-1.39-1.046-2.013l-.033.007c.013.682.086,1.576.086,2.264v2.509Z" transform="translate(-356.929 -155.287)" fill="#1a1818"/>
        <path id="Path_296" data-name="Path 296" d="M459.115,218.9l-3.456,1.542,1.119,2.483,3.86-1.741.874,1.94-6.018,2.695L450.82,215.38l5.813-2.6.867,1.933-3.668,1.629.98,2.185,3.449-1.543Z" transform="translate(-348.644 -159.306)" fill="#1a1818"/>
        <path id="Path_297" data-name="Path 297" d="M455.625,222.628a5.153,5.153,0,0,0,2.589-.715c.94-.536,1.172-1.238.781-1.887-.37-.622-1.006-.722-2.317-.51-1.794.311-3.317-.02-4.165-1.45-1-1.682-.5-3.714,1.576-4.959a6.158,6.158,0,0,1,2.549-.861l.635,2.066a4.641,4.641,0,0,0-2.125.636c-.867.523-1.026,1.218-.709,1.721.371.629,1.026.616,2.463.4,1.933-.285,3.2.179,4.039,1.563.98,1.655.675,3.727-1.748,5.184a6.383,6.383,0,0,1-2.873.894Z" transform="translate(-341.916 -162.29)" fill="#1a1818"/>
        <path id="Path_298" data-name="Path 298" d="M456.278,216.268l-2.185,1.682-1.311-1.721,6.27-4.813,1.331,1.728-2.231,1.715,5.634,7.356-1.86,1.417Z" transform="translate(-337.617 -166.966)" fill="#1a1818"/>
        <path id="Path_299" data-name="Path 299" d="M459.856,219.116l1.523,2.628-1.754,1.668-5.674-10.427,2.2-2.105,10.262,6-1.808,1.734-2.622-1.556Zm.53-3.211-2.145-1.311c-.6-.344-1.311-.828-1.913-1.225l-.033.02c.371.6.867,1.324,1.218,1.927l1.245,2.172Z" transform="translate(-331.046 -169.973)" fill="#1a1818"/>
        <path id="Path_300" data-name="Path 300" d="M457.944,215.094l-1.768,2.132-1.669-1.377,5.045-6.1,1.668,1.377-1.768,2.178,7.124,5.912-1.5,1.807Z" transform="translate(-327.916 -176.358)" fill="#1a1818"/>
        <path id="Path_301" data-name="Path 301" d="M464.21,212.624l-2.072,3.178,2.3,1.5,2.284-3.569,1.787,1.159-3.575,5.515-9.606-6.243,3.456-5.316L460.575,210l-2.178,3.37,1.986,1.3,2.072-3.191Z" transform="translate(-323.285 -181.417)" fill="#1a1818"/>
        <path id="Path_302" data-name="Path 302" d="M456.156,210.091l.96-2.132,8.448,3.78,1.688-3.747,1.986.887-2.628,5.879Z" transform="translate(-318.653 -186.391)" fill="#1a1818"/>
        <path id="Path_303" data-name="Path 303" d="M459.423,212.045l-.867,2.6-2.079-.682,2.556-7.5,2.059.708-.907,2.662,8.766,2.992-.742,2.2Z" transform="translate(-316.849 -194.833)" fill="#1a1818"/>
        <path id="Path_304" data-name="Path 304" d="M456.914,213.219a18.57,18.57,0,0,1,.391-3.118,6.036,6.036,0,0,1,2-3.906,5.248,5.248,0,0,1,4.575-.9,6.009,6.009,0,0,1,4.211,2.582,6.8,6.8,0,0,1,.556,4.946,20,20,0,0,1-.675,2.562Zm9.62-.5a3.14,3.14,0,0,0,.212-.775c.431-2.079-.582-3.681-3.257-4.211-2.337-.45-3.814.53-4.184,2.5a4.11,4.11,0,0,0-.106,1.066Z" transform="translate(-314.393 -202.218)" fill="#1a1818"/>
        <path id="Path_305" data-name="Path 305" d="M459.869,207.42a1.376,1.376,0,1,1,.285-2.708,1.375,1.375,0,1,1-.285,2.708Z" transform="translate(-305.854 -204.701)" fill="#1a1818"/>
      </g>
    </g>
    <g id="Group_68" data-name="Group 68" transform="translate(0 147.831)">
      <g id="Group_67" data-name="Group 67">
        <path id="Path_306" data-name="Path 306" d="M434.46,230.95a5.929,5.929,0,0,1-.285,1.9,5.483,5.483,0,0,1-.8,1.509,5.11,5.11,0,0,1-1.225,1.125,8.161,8.161,0,0,1-1.556.788,12.069,12.069,0,0,1-1.827.444,16.11,16.11,0,0,1-2.158.146h-5.23a1.161,1.161,0,0,1-.834-.3,1.23,1.23,0,0,1-.351-.96v-17.18a1.225,1.225,0,0,1,.351-.953,1.244,1.244,0,0,1,.834-.291h4.946a13.441,13.441,0,0,1,3.065.3,6,6,0,0,1,2.125.907,4.075,4.075,0,0,1,1.311,1.569,5.084,5.084,0,0,1,.464,2.225,4.99,4.99,0,0,1-.179,1.344,3.851,3.851,0,0,1-.536,1.139,4.343,4.343,0,0,1-.861.914,4.439,4.439,0,0,1-1.172.642,5.213,5.213,0,0,1,1.556.536,4.6,4.6,0,0,1,1.225.98,4.867,4.867,0,0,1,.834,1.4A5.483,5.483,0,0,1,434.46,230.95Zm-5.184-8.289a2.509,2.509,0,0,0-.192-1.066,1.665,1.665,0,0,0-.53-.781,2.567,2.567,0,0,0-.927-.49,5.512,5.512,0,0,0-1.483-.159h-2.019v5.118h2.231a3.627,3.627,0,0,0,1.384-.218,2.324,2.324,0,0,0,.867-.563,2.15,2.15,0,0,0,.5-.828A2.787,2.787,0,0,0,429.276,222.662Zm1.033,8.421a3.329,3.329,0,0,0-.225-1.218,2.753,2.753,0,0,0-.682-.914,3.352,3.352,0,0,0-1.132-.556,7.054,7.054,0,0,0-1.774-.205h-2.37v5.6h2.886a4.661,4.661,0,0,0,1.4-.172,2.734,2.734,0,0,0,1.668-1.37A3,3,0,0,0,430.308,231.083Z" transform="translate(-420.192 -216.809)" fill="#1a1818"/>
        <path id="Path_307" data-name="Path 307" d="M440.426,235.462a4.983,4.983,0,0,1,.232.874.589.589,0,0,1-.126.477,1.076,1.076,0,0,1-.6.192c-.285.026-.676.04-1.165.04-.516,0-.927-.013-1.212-.033a2.993,2.993,0,0,1-.656-.073.556.556,0,0,1-.331-.212.9.9,0,0,1-.146-.311l-1.324-3.953h-7.409l-1.245,3.853a1.331,1.331,0,0,1-.152.351.635.635,0,0,1-.324.232,2.39,2.39,0,0,1-.622.112c-.265.02-.629.033-1.04.033a10.457,10.457,0,0,1-1.1-.053.849.849,0,0,1-.569-.212.593.593,0,0,1-.106-.5,5.314,5.314,0,0,1,.232-.848l6.078-17.472a1.291,1.291,0,0,1,.212-.417.753.753,0,0,1,.384-.238,2.727,2.727,0,0,1,.735-.113c.318-.02.742-.033,1.251-.033.589,0,1.079.013,1.417.033a3.273,3.273,0,0,1,.834.113.738.738,0,0,1,.444.252,2.2,2.2,0,0,1,.219.45Zm-9.057-14.439h0l-2.774,8.362h5.575Z" transform="translate(-407.118 -216.904)" fill="#1a1818"/>
        <path id="Path_308" data-name="Path 308" d="M441.018,236.415a.354.354,0,0,1-.112.252.689.689,0,0,1-.318.212,2.086,2.086,0,0,1-.616.113,8.824,8.824,0,0,1-.96.053,9.323,9.323,0,0,1-.973-.053,2.055,2.055,0,0,1-.622-.113.766.766,0,0,1-.318-.212.346.346,0,0,1-.106-.252v-7.971h-7.349v7.971a.435.435,0,0,1-.093.252.724.724,0,0,1-.318.212,2.138,2.138,0,0,1-.622.113,8.8,8.8,0,0,1-.973.053,9.118,9.118,0,0,1-.954-.053,2.053,2.053,0,0,1-.622-.113.569.569,0,0,1-.318-.212.3.3,0,0,1-.106-.252V217.8a.353.353,0,0,1,.106-.278.516.516,0,0,1,.318-.179,2.786,2.786,0,0,1,.622-.132,6.428,6.428,0,0,1,.954-.059,6.29,6.29,0,0,1,.973.059,2.965,2.965,0,0,1,.622.132.638.638,0,0,1,.318.179.518.518,0,0,1,.093.278v7.236h7.349V217.8a.407.407,0,0,1,.106-.278.669.669,0,0,1,.318-.179,2.789,2.789,0,0,1,.622-.132,6.6,6.6,0,0,1,.973-.059,6.276,6.276,0,0,1,.96.059,2.888,2.888,0,0,1,.616.132.611.611,0,0,1,.318.179.415.415,0,0,1,.112.278Z" transform="translate(-389.582 -216.904)" fill="#1a1818"/>
        <path id="Path_309" data-name="Path 309" d="M446.233,235.462a5.51,5.51,0,0,1,.225.874.491.491,0,0,1-.119.477.951.951,0,0,1-.583.192c-.285.026-.7.04-1.172.04-.53,0-.94-.013-1.225-.033a2.892,2.892,0,0,1-.656-.073.487.487,0,0,1-.318-.212.658.658,0,0,1-.166-.311l-1.324-3.953h-7.389l-1.251,3.853a1.016,1.016,0,0,1-.166.351.512.512,0,0,1-.3.232,2.447,2.447,0,0,1-.629.112c-.265.02-.622.033-1.053.033a10.781,10.781,0,0,1-1.1-.053.768.768,0,0,1-.549-.212.592.592,0,0,1-.1-.5,5.167,5.167,0,0,1,.225-.848l6.078-17.472a1.439,1.439,0,0,1,.192-.417.739.739,0,0,1,.4-.238,2.972,2.972,0,0,1,.741-.113c.318-.02.741-.033,1.251-.033.589,0,1.073.013,1.423.033a3.406,3.406,0,0,1,.827.113.764.764,0,0,1,.431.252,1.238,1.238,0,0,1,.212.45ZM437.2,221.023h-.02l-2.781,8.362h5.581Z" transform="translate(-374.386 -216.904)" fill="#1a1818"/>
        <path id="Path_310" data-name="Path 310" d="M447.837,226.72a12.844,12.844,0,0,1-.735,4.634,7.719,7.719,0,0,1-2.013,3.145,8.135,8.135,0,0,1-3.211,1.788,16.168,16.168,0,0,1-4.515.576H432.67a1.144,1.144,0,0,1-1.211-1.265v-17.18a1.2,1.2,0,0,1,.357-.953,1.3,1.3,0,0,1,.854-.291h5.045a13.979,13.979,0,0,1,4.462.609,7.956,7.956,0,0,1,3.085,1.827,7.814,7.814,0,0,1,1.913,2.993A12.148,12.148,0,0,1,447.837,226.72Zm-4.151.126a9.376,9.376,0,0,0-.338-2.589,5.351,5.351,0,0,0-1.039-2.079,4.975,4.975,0,0,0-1.847-1.39,7.729,7.729,0,0,0-2.979-.5h-2.02v13.393h2.072a7.652,7.652,0,0,0,2.767-.424,4.429,4.429,0,0,0,1.874-1.278,5.413,5.413,0,0,0,1.139-2.145A10.872,10.872,0,0,0,443.686,226.846Z" transform="translate(-356.87 -216.809)" fill="#1a1818"/>
        <path id="Path_311" data-name="Path 311" d="M450.488,229.616a9.126,9.126,0,0,1-.529,3.238,6.362,6.362,0,0,1-1.556,2.436,7,7,0,0,1-2.556,1.49,10.748,10.748,0,0,1-3.509.523,11.034,11.034,0,0,1-3.33-.464,6.512,6.512,0,0,1-2.5-1.41,6.326,6.326,0,0,1-1.556-2.35,9.274,9.274,0,0,1-.529-3.29V217.8a.567.567,0,0,1,.079-.278.536.536,0,0,1,.324-.179,2.986,2.986,0,0,1,.616-.132,6.589,6.589,0,0,1,.973-.059,6.21,6.21,0,0,1,.96.059,2.428,2.428,0,0,1,.6.132.651.651,0,0,1,.338.179.422.422,0,0,1,.086.278v11.639a6.445,6.445,0,0,0,.3,2.019,3.613,3.613,0,0,0,.814,1.423,3.5,3.5,0,0,0,1.311.847,4.67,4.67,0,0,0,1.682.278,4.233,4.233,0,0,0,1.682-.3,3.146,3.146,0,0,0,1.264-.841,3.584,3.584,0,0,0,.794-1.364,5.52,5.52,0,0,0,.285-1.861V217.8a.51.51,0,0,1,.086-.278.579.579,0,0,1,.338-.179,2.432,2.432,0,0,1,.6-.132,6.5,6.5,0,0,1,.98-.059,6.2,6.2,0,0,1,.934.059,3.166,3.166,0,0,1,.622.132.52.52,0,0,1,.3.179.388.388,0,0,1,.086.278Z" transform="translate(-340.183 -216.904)" fill="#1a1818"/>
        <path id="Path_312" data-name="Path 312" d="M452.1,236.34a.5.5,0,0,1-.053.265.467.467,0,0,1-.285.212,3.541,3.541,0,0,1-.669.1c-.3.02-.715.033-1.2.033-.424,0-.762-.013-1.026-.033a2.213,2.213,0,0,1-.589-.112.545.545,0,0,1-.318-.218,1.148,1.148,0,0,1-.159-.311l-1.775-4.4a14.062,14.062,0,0,0-.6-1.324,6.334,6.334,0,0,0-.669-.973,2.982,2.982,0,0,0-.867-.583,3.234,3.234,0,0,0-1.139-.192h-1.238v7.514a.347.347,0,0,1-.106.252.767.767,0,0,1-.318.212,2.179,2.179,0,0,1-.622.113,8.875,8.875,0,0,1-.973.053,9.123,9.123,0,0,1-.96-.053,1.976,1.976,0,0,1-.622-.113.7.7,0,0,1-.311-.212.332.332,0,0,1-.093-.252v-17.9a1.22,1.22,0,0,1,.337-.953,1.282,1.282,0,0,1,.834-.291h5.118c.51,0,.94.007,1.265.027.344.02.649.053.914.079a8.206,8.206,0,0,1,2.145.563,5.59,5.59,0,0,1,1.616,1.073,4.517,4.517,0,0,1,1.006,1.582,5.741,5.741,0,0,1,.357,2.079,5.9,5.9,0,0,1-.265,1.794,3.99,3.99,0,0,1-.748,1.443,4.373,4.373,0,0,1-1.185,1.125,7.516,7.516,0,0,1-1.629.761,4.941,4.941,0,0,1,.834.51,4.743,4.743,0,0,1,.722.735,7,7,0,0,1,.662.993c.192.371.384.8.576,1.251l1.668,3.886a8.735,8.735,0,0,1,.3.841A1.285,1.285,0,0,1,452.1,236.34Zm-5.131-13.367a2.805,2.805,0,0,0-.47-1.635,2.391,2.391,0,0,0-1.443-.96,5.452,5.452,0,0,0-.7-.113c-.265-.026-.6-.033-1.066-.033h-1.788V225.8h2.019a4.765,4.765,0,0,0,1.51-.205,2.947,2.947,0,0,0,1.059-.57,2.326,2.326,0,0,0,.636-.9A2.911,2.911,0,0,0,446.968,222.973Z" transform="translate(-322.905 -216.809)" fill="#1a1818"/>
        <path id="Path_313" data-name="Path 313" d="M453.636,223.151a7.959,7.959,0,0,1-.517,2.933,5.527,5.527,0,0,1-1.5,2.152,6.285,6.285,0,0,1-2.443,1.318,10.837,10.837,0,0,1-3.37.47h-1.648v6.3a.327.327,0,0,1-.086.252.725.725,0,0,1-.338.212,2,2,0,0,1-.616.113,9.007,9.007,0,0,1-.98.053,9.32,9.32,0,0,1-.953-.053,2.051,2.051,0,0,1-.622-.113.56.56,0,0,1-.3-.212.354.354,0,0,1-.113-.252V218.6a1.442,1.442,0,0,1,.378-1.086,1.339,1.339,0,0,1,.966-.344h4.668c.457,0,.9.02,1.331.046a11.9,11.9,0,0,1,1.5.225,6.7,6.7,0,0,1,1.788.642,5.581,5.581,0,0,1,1.543,1.192,4.915,4.915,0,0,1,.98,1.695A7.168,7.168,0,0,1,453.636,223.151Zm-4.178.285a3.515,3.515,0,0,0-.377-1.715,2.681,2.681,0,0,0-.887-.98,3.5,3.5,0,0,0-1.132-.417,11.315,11.315,0,0,0-1.2-.066h-1.708v6.68h1.787a4.434,4.434,0,0,0,1.616-.265,2.589,2.589,0,0,0,1.046-.715,3.453,3.453,0,0,0,.636-1.106A4.505,4.505,0,0,0,449.459,223.436Z" transform="translate(-308.016 -216.809)" fill="#1a1818"/>
        <path id="Path_314" data-name="Path 314" d="M458.747,229.616a9.27,9.27,0,0,1-.53,3.238,6.534,6.534,0,0,1-1.562,2.436,7.009,7.009,0,0,1-2.569,1.49,10.624,10.624,0,0,1-3.489.523,10.945,10.945,0,0,1-3.33-.464,6.233,6.233,0,0,1-2.5-1.41,6.05,6.05,0,0,1-1.569-2.35,9.572,9.572,0,0,1-.549-3.29V217.8a.516.516,0,0,1,.093-.278.652.652,0,0,1,.338-.179,2.959,2.959,0,0,1,.622-.132,7.828,7.828,0,0,1,1.926,0,2.508,2.508,0,0,1,.6.132.625.625,0,0,1,.337.179.539.539,0,0,1,.112.278v11.639a6.286,6.286,0,0,0,.278,2.019,3.413,3.413,0,0,0,.834,1.423,3.255,3.255,0,0,0,1.271.847,4.834,4.834,0,0,0,1.688.278,4.309,4.309,0,0,0,1.7-.3,2.971,2.971,0,0,0,1.251-.841,3.361,3.361,0,0,0,.8-1.364,5.36,5.36,0,0,0,.285-1.861V217.8a.51.51,0,0,1,.086-.278.581.581,0,0,1,.324-.179,2.786,2.786,0,0,1,.622-.132,7.723,7.723,0,0,1,1.913,0,2.767,2.767,0,0,1,.6.132.56.56,0,0,1,.318.179.4.4,0,0,1,.093.278Z" transform="translate(-293.953 -216.904)" fill="#1a1818"/>
        <path id="Path_315" data-name="Path 315" d="M460.348,236.34a.4.4,0,0,1-.086.265.4.4,0,0,1-.285.212,3.552,3.552,0,0,1-.655.1c-.3.02-.708.033-1.2.033-.424,0-.762-.013-1.033-.033a2.1,2.1,0,0,1-.583-.112.506.506,0,0,1-.311-.218,1.158,1.158,0,0,1-.165-.311l-1.768-4.4a12.544,12.544,0,0,0-.622-1.324,4.417,4.417,0,0,0-.676-.973,2.529,2.529,0,0,0-.867-.583,3.018,3.018,0,0,0-1.119-.192h-1.258v7.514a.327.327,0,0,1-.086.252.7.7,0,0,1-.331.212,1.846,1.846,0,0,1-.609.113,8.772,8.772,0,0,1-.973.053,8.984,8.984,0,0,1-.953-.053,2.2,2.2,0,0,1-.642-.113.59.59,0,0,1-.3-.212.333.333,0,0,1-.093-.252v-17.9a1.2,1.2,0,0,1,.338-.953,1.28,1.28,0,0,1,.848-.291h5.091c.51,0,.934.007,1.291.027.318.02.622.053.907.079a8.158,8.158,0,0,1,2.138.563,5.874,5.874,0,0,1,1.615,1.073,4.385,4.385,0,0,1,.993,1.582,5.339,5.339,0,0,1,.371,2.079,5.894,5.894,0,0,1-.265,1.794,4.061,4.061,0,0,1-.728,1.443,5.006,5.006,0,0,1-1.2,1.125,7.241,7.241,0,0,1-1.629.761,4.949,4.949,0,0,1,.834.51,4.762,4.762,0,0,1,.722.735,7.6,7.6,0,0,1,.655.993c.2.371.4.8.589,1.251l1.662,3.886c.139.384.232.669.285.841A1.151,1.151,0,0,1,460.348,236.34Zm-5.171-13.367a2.8,2.8,0,0,0-.444-1.635,2.376,2.376,0,0,0-1.437-.96,6.115,6.115,0,0,0-.708-.113c-.251-.026-.6-.033-1.066-.033h-1.807V225.8h2.059a4.716,4.716,0,0,0,1.49-.205,2.949,2.949,0,0,0,1.059-.57,2.417,2.417,0,0,0,.642-.9A3.163,3.163,0,0,0,455.178,222.973Z" transform="translate(-276.653 -216.809)" fill="#1a1818"/>
        <path id="Path_316" data-name="Path 316" d="M464.227,218.822a7.352,7.352,0,0,1-.04.735,2.8,2.8,0,0,1-.106.51.588.588,0,0,1-.192.271.456.456,0,0,1-.272.1H458.7V236.32a.435.435,0,0,1-.093.252.8.8,0,0,1-.338.212,2.006,2.006,0,0,1-.616.113,9.124,9.124,0,0,1-.96.053,9.518,9.518,0,0,1-.973-.053,2.178,2.178,0,0,1-.622-.113.726.726,0,0,1-.318-.212.435.435,0,0,1-.093-.252V220.437h-4.939a.374.374,0,0,1-.252-.1.485.485,0,0,1-.172-.271,1.68,1.68,0,0,1-.126-.51,3.941,3.941,0,0,1-.053-.735,4.423,4.423,0,0,1,.053-.788,1.843,1.843,0,0,1,.126-.516.444.444,0,0,1,.172-.265.4.4,0,0,1,.252-.079h13.87a.484.484,0,0,1,.272.079.533.533,0,0,1,.192.265,3.173,3.173,0,0,1,.106.516C464.207,218.252,464.227,218.5,464.227,218.822Z" transform="translate(-257.459 -216.809)" fill="#1a1818"/>
        <path id="Path_317" data-name="Path 317" d="M463.452,235.287c0,.291,0,.53-.02.742-.053.2-.073.357-.119.477a.608.608,0,0,1-.205.265.3.3,0,0,1-.245.093h-9.884a1.177,1.177,0,0,1-.854-.3,1.23,1.23,0,0,1-.351-.96v-17.18a1.225,1.225,0,0,1,.351-.953,1.26,1.26,0,0,1,.854-.291h9.831a.347.347,0,0,1,.238.079.639.639,0,0,1,.192.258,3.583,3.583,0,0,1,.1.483,7.243,7.243,0,0,1,.04.755c0,.271-.02.523-.04.722a3.82,3.82,0,0,1-.1.483,1.746,1.746,0,0,1-.192.265.377.377,0,0,1-.238.073h-7.031V225.1h5.952a.4.4,0,0,1,.225.086.607.607,0,0,1,.2.271,1.657,1.657,0,0,1,.126.477c.013.186.033.417.033.708s-.02.543-.033.728a1.807,1.807,0,0,1-.126.47.444.444,0,0,1-.2.245.3.3,0,0,1-.225.093h-5.952v5.541h7.084a.346.346,0,0,1,.245.086.56.56,0,0,1,.205.271c.046.112.066.285.119.477C463.452,234.744,463.452,234.982,463.452,235.287Z" transform="translate(-242.688 -216.809)" fill="#1a1818"/>
        <path id="Path_318" data-name="Path 318" d="M471.648,235.462a7.416,7.416,0,0,1,.225.874.524.524,0,0,1-.119.477,1.021,1.021,0,0,1-.6.192q-.427.04-1.172.04c-.51,0-.914-.013-1.218-.033a2.9,2.9,0,0,1-.642-.073.6.6,0,0,1-.337-.212,1.231,1.231,0,0,1-.152-.311l-1.318-3.953H458.9l-1.231,3.853a1.6,1.6,0,0,1-.146.351.752.752,0,0,1-.331.232,2.446,2.446,0,0,1-.622.112c-.285.02-.622.033-1.066.033-.463,0-.827-.026-1.1-.053a.756.756,0,0,1-.549-.212.736.736,0,0,1-.106-.5,5.328,5.328,0,0,1,.232-.848l6.078-17.472a1.172,1.172,0,0,1,.212-.417.72.72,0,0,1,.391-.238,2.735,2.735,0,0,1,.741-.113c.3-.02.729-.033,1.245-.033.6,0,1.079.013,1.437.033a3.386,3.386,0,0,1,.814.113.719.719,0,0,1,.437.252,2.221,2.221,0,0,1,.212.45Zm-9.057-14.439h0l-2.781,8.362h5.568Z" transform="translate(-231.592 -216.904)" fill="#1a1818"/>
        <path id="Path_319" data-name="Path 319" d="M469.6,235.287a7.224,7.224,0,0,1-.053.742,1.271,1.271,0,0,1-.106.477.785.785,0,0,1-.192.265.352.352,0,0,1-.252.093h-9.885a1.109,1.109,0,0,1-1.185-1.265v-17.18a1.218,1.218,0,0,1,.331-.953,1.322,1.322,0,0,1,.854-.291h9.818a.353.353,0,0,1,.245.079.441.441,0,0,1,.192.258,2.178,2.178,0,0,1,.112.483,7.474,7.474,0,0,1,.033.755c0,.271-.013.523-.033.722a2.274,2.274,0,0,1-.112.483.765.765,0,0,1-.192.265.383.383,0,0,1-.245.073H461.9V225.1h5.958a.439.439,0,0,1,.245.086.513.513,0,0,1,.192.271,1.469,1.469,0,0,1,.126.477,6.723,6.723,0,0,1,.033.708,7.05,7.05,0,0,1-.033.728,1.582,1.582,0,0,1-.126.47.388.388,0,0,1-.192.245.335.335,0,0,1-.245.093H461.9v5.541H469a.413.413,0,0,1,.252.086.7.7,0,0,1,.192.271,1.271,1.271,0,0,1,.106.477A6.432,6.432,0,0,1,469.6,235.287Z" transform="translate(-208.077 -216.809)" fill="#1a1818"/>
        <path id="Path_320" data-name="Path 320" d="M472.866,231.26a6.219,6.219,0,0,1-.589,2.728,5.86,5.86,0,0,1-1.556,1.953,7.312,7.312,0,0,1-2.33,1.185,10.155,10.155,0,0,1-2.821.391,10.669,10.669,0,0,1-1.9-.166,11.813,11.813,0,0,1-1.563-.41,6.381,6.381,0,0,1-1.092-.483,2.777,2.777,0,0,1-.635-.457,1.082,1.082,0,0,1-.3-.569,5.744,5.744,0,0,1-.073-1.073c0-.331,0-.582.02-.794a2.3,2.3,0,0,1,.1-.53.78.78,0,0,1,.185-.278.465.465,0,0,1,.265-.079,1.185,1.185,0,0,1,.6.252c.265.159.6.357.993.55a8.162,8.162,0,0,0,1.47.549,6.735,6.735,0,0,0,1.946.271,4.744,4.744,0,0,0,1.311-.185,2.416,2.416,0,0,0,.954-.5,2.012,2.012,0,0,0,.642-.794,2.375,2.375,0,0,0,.212-1.053,1.714,1.714,0,0,0-.371-1.132,3.38,3.38,0,0,0-.94-.861,10.433,10.433,0,0,0-1.331-.708c-.51-.212-1.02-.444-1.536-.682a10.465,10.465,0,0,1-1.542-.834,5.915,5.915,0,0,1-1.331-1.106,5.443,5.443,0,0,1-.96-1.536,5.769,5.769,0,0,1-.351-2.119,5.449,5.449,0,0,1,.516-2.476,5.15,5.15,0,0,1,1.417-1.788,5.839,5.839,0,0,1,2.086-1.046,9.147,9.147,0,0,1,5.284.046,10.156,10.156,0,0,1,1.079.391,2.9,2.9,0,0,1,.642.4,1.34,1.34,0,0,1,.192.252.983.983,0,0,1,.093.278l.053.437c0,.192.013.411.013.682a7.028,7.028,0,0,1-.033.722,2.654,2.654,0,0,1-.073.51.656.656,0,0,1-.146.3.377.377,0,0,1-.265.086,1.323,1.323,0,0,1-.529-.2,6.979,6.979,0,0,0-.9-.477,9.289,9.289,0,0,0-1.225-.457,5.7,5.7,0,0,0-1.536-.205,3.873,3.873,0,0,0-1.152.159,2.174,2.174,0,0,0-.814.457,1.608,1.608,0,0,0-.483.662,2.261,2.261,0,0,0-.159.841,1.973,1.973,0,0,0,.358,1.145,3.748,3.748,0,0,0,.953.841,10.91,10.91,0,0,0,1.364.7c.49.219,1.013.45,1.562.7a12.773,12.773,0,0,1,1.536.828,6.473,6.473,0,0,1,1.364,1.1,5.325,5.325,0,0,1,.96,1.516A5.651,5.651,0,0,1,472.866,231.26Z" transform="translate(-196.436 -217.118)" fill="#1a1818"/>
        <path id="Path_321" data-name="Path 321" d="M477.131,218.822a4.04,4.04,0,0,1-.04.735,2.8,2.8,0,0,1-.106.51.586.586,0,0,1-.192.271.448.448,0,0,1-.251.1H471.6V236.32a.333.333,0,0,1-.092.252.692.692,0,0,1-.338.212,1.865,1.865,0,0,1-.6.113,9.02,9.02,0,0,1-1.953,0,1.912,1.912,0,0,1-.6-.113.69.69,0,0,1-.337-.212.435.435,0,0,1-.093-.252V220.437h-4.939a.416.416,0,0,1-.252-.1.7.7,0,0,1-.192-.271,2.808,2.808,0,0,1-.106-.51,4.053,4.053,0,0,1-.04-.735,4.571,4.571,0,0,1,.04-.788,3.182,3.182,0,0,1,.106-.516.621.621,0,0,1,.192-.265.437.437,0,0,1,.252-.079h13.89a.467.467,0,0,1,.251.079.531.531,0,0,1,.192.265,3.172,3.172,0,0,1,.106.516A4.557,4.557,0,0,1,477.131,218.822Z" transform="translate(-184.858 -216.809)" fill="#1a1818"/>
        <path id="Path_322" data-name="Path 322" d="M468.775,221.777a2.682,2.682,0,0,1-.5,1.907,2.555,2.555,0,0,1-1.768.483,1.87,1.87,0,0,1-2.251-2.3,2.625,2.625,0,0,1,.516-1.926,2.458,2.458,0,0,1,1.768-.477,2.593,2.593,0,0,1,1.754.463A2.694,2.694,0,0,1,468.775,221.777Z" transform="translate(-172.504 -203.921)" fill="#1a1818"/>
        <path id="Path_323" data-name="Path 323" d="M477.432,235.29a7.452,7.452,0,0,1-.04.748,1.553,1.553,0,0,1-.126.523.735.735,0,0,1-.172.3.42.42,0,0,1-.284.093h-9.017a1.161,1.161,0,0,1-.834-.3,1.226,1.226,0,0,1-.338-.96V217.8a.394.394,0,0,1,.093-.278.56.56,0,0,1,.318-.179,2.711,2.711,0,0,1,.616-.132,6.521,6.521,0,0,1,.96-.059,6.348,6.348,0,0,1,.973.059,2.552,2.552,0,0,1,.622.132.559.559,0,0,1,.318.179.413.413,0,0,1,.113.278v15.85h6.177a.433.433,0,0,1,.457.344,1.7,1.7,0,0,1,.126.5C477.412,234.72,477.432,234.979,477.432,235.29Z" transform="translate(-159.239 -216.904)" fill="#1a1818"/>
        <path id="Path_324" data-name="Path 324" d="M483.042,218.822c0,.285-.02.536-.039.735s-.073.391-.1.51a.539.539,0,0,1-.218.271.346.346,0,0,1-.245.1h-4.926V236.32a.433.433,0,0,1-.093.252.774.774,0,0,1-.331.212,2.228,2.228,0,0,1-.622.113,9.349,9.349,0,0,1-.96.053,9.189,9.189,0,0,1-.973-.053,2.1,2.1,0,0,1-.622-.113.766.766,0,0,1-.318-.212.368.368,0,0,1-.1-.252V220.437h-4.926a.382.382,0,0,1-.265-.1.691.691,0,0,1-.186-.271,2.246,2.246,0,0,1-.119-.51c-.02-.2-.033-.45-.033-.735,0-.324.013-.569.033-.788a2.513,2.513,0,0,1,.119-.516.616.616,0,0,1,.186-.265.407.407,0,0,1,.265-.079h13.87a.365.365,0,0,1,.245.079.5.5,0,0,1,.218.265c.027.126.066.311.1.516S483.042,218.5,483.042,218.822Z" transform="translate(-151.668 -216.809)" fill="#1a1818"/>
        <path id="Path_325" data-name="Path 325" d="M486.941,226.72a13.324,13.324,0,0,1-.708,4.634,7.662,7.662,0,0,1-2.019,3.145,8.144,8.144,0,0,1-3.224,1.788,16,16,0,0,1-4.515.576h-4.7A1.125,1.125,0,0,1,470.6,235.6v-17.18a1.156,1.156,0,0,1,.344-.953,1.232,1.232,0,0,1,.834-.291h5.052a13.91,13.91,0,0,1,4.469.609,7.69,7.69,0,0,1,5.012,4.82A12.165,12.165,0,0,1,486.941,226.72Zm-4.131.126a9.389,9.389,0,0,0-.331-2.589,5.269,5.269,0,0,0-1.046-2.079,5.132,5.132,0,0,0-1.86-1.39,7.743,7.743,0,0,0-2.973-.5h-2.006v13.393h2.059a7.755,7.755,0,0,0,2.781-.424,4.49,4.49,0,0,0,1.88-1.278,5.666,5.666,0,0,0,1.132-2.145A10.9,10.9,0,0,0,482.81,226.846Z" transform="translate(-136.897 -216.809)" fill="#1a1818"/>
        <path id="Path_326" data-name="Path 326" d="M477.938,221.777a2.746,2.746,0,0,1-.5,1.907,2.279,2.279,0,0,1-4.018-1.814,2.729,2.729,0,0,1,.5-1.926,3.534,3.534,0,0,1,3.522-.013A2.584,2.584,0,0,1,477.938,221.777Z" transform="translate(-121.002 -203.921)" fill="#1a1818"/>
      </g>
    </g>
  </g>
</svg>
