<svg xmlns="http://www.w3.org/2000/svg" width="80.298" height="53.311" viewBox="0 0 80.298 53.311">
  <g id="Group_876" data-name="Group 876" transform="translate(0.435 -0.499)">
    <g id="Group_866" data-name="Group 866" transform="translate(15.166 1)">
      <path id="Path_113" data-name="Path 113" d="M68.965,3605.159H65.3l-1.222-3.8H60.005s-3.8,24.573,18.463,27.831" transform="translate(-59.759 -3601.108)" fill="none" stroke="#0070d6" stroke-width="1.5"/>
      <path id="Path_114" data-name="Path 114" d="M69.262,3605.159h3.665l1.222-3.8h4.073s3.8,24.573-18.463,27.831" transform="translate(-31.529 -3601.108)" fill="none" stroke="#0070d6" stroke-width="1.5"/>
      <path id="Union_1" data-name="Union 1" d="M20.995,44.905H1.267s-1.342-4.491,7.009-5.386a14.087,14.087,0,0,0,4.325-.961c-.012-1.019-.3-13.521-7.307-17.382C-2.014,17.15.372,0,.372,0H31.988s4.921,13.272-4.772,21.176c-6.612,5.391-7.6,11.545-7.566,14.913h.124s-.048.032-.123.089a12.647,12.647,0,0,0,.239,2.364,13.882,13.882,0,0,0,4.357.977c8.351.895,7.009,5.386,7.009,5.386Z" transform="translate(7.557 0)" fill="#0089eb"/>
      <rect id="Rectangle_2" data-name="Rectangle 2" width="33.499" height="3.764" transform="translate(7.242 44.529)" fill="#0089eb"/>
      <rect id="Rectangle_3" data-name="Rectangle 3" width="36.887" height="3.764" transform="translate(5.737 49.046)" fill="#0089eb"/>
    </g>
    <g id="Group_867" data-name="Group 867" transform="translate(0 29.572)">
      <path id="Union_1-2" data-name="Union 1" d="M9.484,20.285H.572s-.606-2.029,3.166-2.433a6.363,6.363,0,0,0,1.954-.434c-.005-.46-.135-6.108-3.3-7.852C-.91,7.747.168,0,.168,0H14.45s2.223,6-2.156,9.566A8.47,8.47,0,0,0,8.876,16.3h.056s-.022.014-.055.04a5.713,5.713,0,0,0,.108,1.068,6.271,6.271,0,0,0,1.968.441c3.773.4,3.166,2.433,3.166,2.433Z" transform="translate(3.414 0)" fill="#0089eb"/>
      <path id="Path_113-2" data-name="Path 113" d="M63.918,3603.075H62.262l-.552-1.718H59.87s-1.717,11.1,8.34,12.572" transform="translate(-59.759 -3601.245)" fill="none" stroke="#0070d6" stroke-width="0.8"/>
      <path id="Path_114-2" data-name="Path 114" d="M64.052,3603.075h1.656l.552-1.718H68.1s1.717,11.1-8.34,12.572" transform="translate(-47.007 -3601.245)" fill="none" stroke="#0070d6" stroke-width="0.8"/>
      <rect id="Rectangle_2-2" data-name="Rectangle 2" width="15.133" height="1.7" transform="translate(3.272 20.115)" fill="#0089eb"/>
      <rect id="Rectangle_3-2" data-name="Rectangle 3" width="16.663" height="1.7" transform="translate(2.591 22.156)" fill="#0089eb"/>
    </g>
    <g id="Group_868" data-name="Group 868" transform="translate(58.224 29.572)">
      <path id="Union_1-3" data-name="Union 1" d="M9.484,20.285H.572s-.606-2.029,3.166-2.433a6.363,6.363,0,0,0,1.954-.434c-.005-.46-.135-6.108-3.3-7.852C-.91,7.747.168,0,.168,0H14.45s2.223,6-2.156,9.566A8.47,8.47,0,0,0,8.876,16.3h.056s-.022.014-.055.04a5.713,5.713,0,0,0,.108,1.068,6.271,6.271,0,0,0,1.968.441c3.773.4,3.166,2.433,3.166,2.433Z" transform="translate(3.414 0)" fill="#0089eb"/>
      <path id="Path_113-3" data-name="Path 113" d="M63.918,3603.075H62.262l-.552-1.718H59.87s-1.717,11.1,8.34,12.572" transform="translate(-59.759 -3601.245)" fill="none" stroke="#0070d6" stroke-width="0.8"/>
      <path id="Path_114-3" data-name="Path 114" d="M64.052,3603.075h1.656l.552-1.718H68.1s1.717,11.1-8.34,12.572" transform="translate(-47.007 -3601.245)" fill="none" stroke="#0070d6" stroke-width="0.8"/>
      <rect id="Rectangle_2-3" data-name="Rectangle 2" width="15.133" height="1.7" transform="translate(3.272 20.115)" fill="#0089eb"/>
      <rect id="Rectangle_3-3" data-name="Rectangle 3" width="16.663" height="1.7" transform="translate(2.591 22.156)" fill="#0089eb"/>
    </g>
  </g>
</svg>
