<svg id="appl" xmlns="http://www.w3.org/2000/svg" width="324.932" height="119.581" viewBox="0 0 324.932 119.581">
  <g id="Group_26" data-name="Group 26" transform="translate(0 101.308)">
    <g id="Group_25" data-name="Group 25">
      <path id="Path_140" data-name="Path 140" d="M168.745,226.806l-1.086,4.542h-3.568l4.654-17.717h4.522l4.714,17.717h-3.694l-1.178-4.542ZM172.6,223.8l-.933-3.754c-.278-1.053-.55-2.357-.768-3.4h-.046c-.225,1.046-.457,2.37-.708,3.4l-.907,3.754Z" transform="translate(-164.091 -213.36)" fill="#0060af"/>
      <path id="Path_141" data-name="Path 141" d="M166.495,213.631h3.41v7.832h.073c.344-.7.7-1.317,1.039-1.94l3.463-5.892H178.7l-5.038,7.541,5.3,10.176H174.95l-3.734-7.647-1.311,1.867v5.78h-3.41Z" transform="translate(-150.579 -213.36)" fill="#0060af"/>
      <path id="Path_142" data-name="Path 142" d="M172.028,213.631v17.717h-3.436V213.631Z" transform="translate(-138.793 -213.36)" fill="#0060af"/>
      <path id="Path_143" data-name="Path 143" d="M173.835,213.631h3.43v11.2c0,5.038-2.086,6.8-5.422,6.8a7.978,7.978,0,0,1-2.509-.417l.384-3.224a5.4,5.4,0,0,0,1.774.3c1.423,0,2.344-.761,2.344-3.515Z" transform="translate(-134.628 -213.36)" fill="#0060af"/>
      <path id="Path_144" data-name="Path 144" d="M171.653,213.983a24.826,24.826,0,0,1,4.661-.371,6.555,6.555,0,0,1,4.641,1.417,5.533,5.533,0,0,1,1.629,4.092,6.192,6.192,0,0,1-1.4,4.211,6.465,6.465,0,0,1-4.946,1.867,9.458,9.458,0,0,1-1.172-.073v6.329h-3.416Zm3.416,8.037a4.774,4.774,0,0,0,1.139.106,2.707,2.707,0,0,0,2.973-2.893,2.416,2.416,0,0,0-2.695-2.6,5.419,5.419,0,0,0-1.417.152Z" transform="translate(-121.588 -213.466)" fill="#0060af"/>
      <path id="Path_145" data-name="Path 145" d="M173.633,213.983a26.769,26.769,0,0,1,4.588-.371c2.271,0,3.846.4,4.926,1.39a4.833,4.833,0,0,1,1.4,3.707,4.682,4.682,0,0,1-2.681,4.363v.079c1.053.5,1.635,1.688,2.026,3.3.477,2,.953,4.323,1.238,5.005H181.6a25.763,25.763,0,0,1-1.039-4.138c-.43-2.191-1.066-2.794-2.463-2.827h-1.046v6.965h-3.423Zm3.423,7.62H178.4a2.463,2.463,0,0,0,2.748-2.549,2.28,2.28,0,0,0-2.536-2.469,8.626,8.626,0,0,0-1.556.126Z" transform="translate(-110.459 -213.466)" fill="#0060af"/>
      <path id="Path_146" data-name="Path 146" d="M179.1,213.631v17.717h-3.436V213.631Z" transform="translate(-99.072 -213.36)" fill="#0060af"/>
      <path id="Path_147" data-name="Path 147" d="M176.63,231.348V213.631h4.005l3.171,6.488a59.612,59.612,0,0,1,2.5,6.071h.053c-.232-2.324-.3-4.727-.3-7.375v-5.184h3.171v17.717h-3.615l-3.257-6.839c-.907-1.887-1.88-4.171-2.642-6.243l-.073.033c.113,2.331.146,4.826.146,7.706v5.343Z" transform="translate(-93.615 -213.36)" fill="#0060af"/>
      <path id="Path_148" data-name="Path 148" d="M182.917,217h-4.111v-3.37h11.712V217h-4.145v14.347h-3.456Z" transform="translate(-81.384 -213.36)" fill="#0060af"/>
      <path id="Path_149" data-name="Path 149" d="M184.32,213.631v17.717h-3.469V213.631Z" transform="translate(-69.89 -213.36)" fill="#0060af"/>
      <path id="Path_150" data-name="Path 150" d="M181.822,231.348V213.631h4.045l3.151,6.488a55.264,55.264,0,0,1,2.476,6.071h.073c-.232-2.324-.285-4.727-.285-7.375v-5.184h3.151v17.717h-3.608l-3.264-6.839c-.9-1.887-1.893-4.171-2.642-6.243l-.066.033c.086,2.331.139,4.826.139,7.706v5.343Z" transform="translate(-64.432 -213.36)" fill="#0060af"/>
      <path id="Path_151" data-name="Path 151" d="M197.484,230.678a14.992,14.992,0,0,1-5.085,1,7.822,7.822,0,0,1-6.184-2.39,9.493,9.493,0,0,1-2.145-6.435c.02-5.892,3.7-9.249,8.7-9.249a9.1,9.1,0,0,1,4.217.874l-.708,3.2a7.391,7.391,0,0,0-3.542-.761c-2.887,0-5.052,1.9-5.052,5.74,0,3.641,1.966,5.793,4.8,5.793a4.15,4.15,0,0,0,1.688-.258v-3.714H191.83v-3.132h5.654Z" transform="translate(-51.798 -213.511)" fill="#0060af"/>
      <path id="Path_152" data-name="Path 152" d="M197.557,231.578c-.3-.41-.636-.8-.973-1.271a6.143,6.143,0,0,1-4.2,1.556c-3.688,0-5.316-2.542-5.316-5.012a5.713,5.713,0,0,1,2.906-5.078v-.106a5.855,5.855,0,0,1-1.152-3.41,4.492,4.492,0,0,1,4.568-4.667,3.94,3.94,0,0,1,4.131,4.131c0,1.788-.9,3.317-2.992,4.555l-.04.1c.887,1.132,1.807,2.423,2.555,3.31a12.505,12.505,0,0,0,1.291-4.3H201.4a14.286,14.286,0,0,1-2.536,6.733c.867,1.125,1.754,2.284,2.695,3.463Zm-2.582-3.489c-.94-1.119-2.2-2.714-3.456-4.343a3.075,3.075,0,0,0-1.172,2.443,2.575,2.575,0,0,0,2.516,2.787A2.876,2.876,0,0,0,194.975,228.089Zm-3.085-10.2a4.068,4.068,0,0,0,1.059,2.556c1.086-.894,1.668-1.582,1.668-2.615,0-.834-.437-1.761-1.344-1.761C192.386,216.066,191.89,216.973,191.89,217.887Z" transform="translate(-34.936 -213.59)" fill="#0060af"/>
      <path id="Path_153" data-name="Path 153" d="M190.193,213.983a24.773,24.773,0,0,1,4.661-.371,6.6,6.6,0,0,1,4.661,1.417,5.573,5.573,0,0,1,1.609,4.092,6.193,6.193,0,0,1-1.4,4.211,6.445,6.445,0,0,1-4.946,1.867,9.26,9.26,0,0,1-1.165-.073v6.329h-3.423Zm3.423,8.037a4.75,4.75,0,0,0,1.152.106,2.691,2.691,0,0,0,2.94-2.893,2.4,2.4,0,0,0-2.675-2.6,5.261,5.261,0,0,0-1.417.152Z" transform="translate(-17.382 -213.466)" fill="#0060af"/>
      <path id="Path_154" data-name="Path 154" d="M196.465,226.806l-1.1,4.542H191.8l4.661-17.717h4.5l4.727,17.717h-3.7l-1.172-4.542Zm3.847-3.006-.94-3.754c-.285-1.053-.53-2.357-.761-3.4h-.053c-.212,1.046-.444,2.37-.708,3.4l-.887,3.754Z" transform="translate(-8.328 -213.36)" fill="#0060af"/>
      <path id="Path_155" data-name="Path 155" d="M205.906,231.068a8.425,8.425,0,0,1-3.9.768c-5.263,0-7.991-3.807-7.991-8.852,0-6.038,3.721-9.395,8.322-9.395a7.879,7.879,0,0,1,3.741.775l-.689,3.185a6.476,6.476,0,0,0-2.887-.655c-2.728,0-4.86,1.9-4.86,5.853,0,3.542,1.807,5.78,4.873,5.78a7.477,7.477,0,0,0,2.873-.576Z" transform="translate(4.099 -213.59)" fill="#0060af"/>
      <path id="Path_156" data-name="Path 156" d="M196.15,213.631h3.423v7.832h.073c.331-.7.709-1.317,1.026-1.94l3.469-5.892h4.217l-5.032,7.541,5.3,10.176H204.6l-3.721-7.647-1.311,1.867v5.78H196.15Z" transform="translate(16.099 -213.36)" fill="#0060af"/>
      <path id="Path_157" data-name="Path 157" d="M202.784,226.806l-1.086,4.542h-3.575l4.661-17.717H207.3l4.714,17.717h-3.7l-1.172-4.542Zm3.86-3.006-.953-3.754c-.271-1.053-.536-2.357-.768-3.4h-.053c-.232,1.046-.443,2.37-.689,3.4l-.907,3.754Z" transform="translate(27.189 -213.36)" fill="#0060af"/>
      <path id="Path_158" data-name="Path 158" d="M213.763,230.678a15.172,15.172,0,0,1-5.085,1c-2.781,0-4.787-.814-6.184-2.39a9.4,9.4,0,0,1-2.158-6.435c.033-5.892,3.721-9.249,8.7-9.249a9.29,9.29,0,0,1,4.237.874l-.708,3.2a7.55,7.55,0,0,0-3.568-.761c-2.867,0-5.045,1.9-5.045,5.74,0,3.641,1.966,5.793,4.8,5.793a4.374,4.374,0,0,0,1.7-.258v-3.714H208.1v-3.132h5.667Z" transform="translate(39.627 -213.511)" fill="#0060af"/>
      <path id="Path_159" data-name="Path 159" d="M211.839,223.866h-5.621v4.191h6.276v3.29h-9.726V213.631h9.4v3.3h-5.952V220.6h5.621Z" transform="translate(53.302 -213.36)" fill="#0060af"/>
      <path id="Path_160" data-name="Path 160" d="M205.208,227.44a7.725,7.725,0,0,0,3.827,1.112c1.576,0,2.41-.761,2.41-1.92,0-1.1-.728-1.721-2.549-2.5-2.536-1.026-4.2-2.642-4.2-5.217,0-3.012,2.2-5.323,5.78-5.323a8.332,8.332,0,0,1,3.88.874l-.761,3.231a6.565,6.565,0,0,0-3.171-.821c-1.509,0-2.218.775-2.218,1.695,0,1.132.847,1.635,2.82,2.5,2.675,1.145,3.933,2.787,3.933,5.277,0,2.973-1.947,5.489-6.131,5.489a8.788,8.788,0,0,1-4.323-1.079Z" transform="translate(63.031 -213.59)" fill="#0060af"/>
      <path id="Path_161" data-name="Path 161" d="M207.123,213.631h3.436v14.36h6.058v3.357h-9.494Z" transform="translate(77.774 -213.36)" fill="#0060af"/>
      <path id="Path_162" data-name="Path 162" d="M212.407,217h-4.072v-3.37H220.04V217H215.9v14.347h-3.489Z" transform="translate(84.586 -213.36)" fill="#0060af"/>
      <path id="Path_163" data-name="Path 163" d="M210.379,213.983a25.407,25.407,0,0,1,4.648-.371c2.9,0,4.78.6,6.23,1.893,1.6,1.364,2.589,3.549,2.589,6.674,0,3.383-1.059,5.727-2.529,7.164-1.615,1.556-4.058,2.291-7.038,2.291a26.622,26.622,0,0,1-3.9-.258Zm3.436,14.446a5.268,5.268,0,0,0,1.212.086c3.118.013,5.151-1.973,5.151-6.2.02-3.688-1.841-5.627-4.8-5.627a6.209,6.209,0,0,0-1.562.165Z" transform="translate(96.075 -213.466)" fill="#0060af"/>
      <path id="Path_164" data-name="Path 164" d="M212.561,218.052a2.171,2.171,0,0,1,2.033-2.436c1.185,0,2,1,2,2.436a2.05,2.05,0,1,1-4.032,0Z" transform="translate(108.339 -202.203)" fill="#0060af"/>
    </g>
  </g>
  <g id="Group_29" data-name="Group 29" transform="translate(79.864 0)">
    <g id="Group_28" data-name="Group 28">
      <g id="Group_27" data-name="Group 27">
        <path id="Path_165" data-name="Path 165" d="M179.272,208.394l7.263,15.8h8.435l-7.264-15.8h-8.434" transform="translate(-158.629 -141.484)" fill="#00a1ed"/>
        <path id="Path_166" data-name="Path 166" d="M180.915,208.394l7.283,15.8h8.415l-8.1-15.8h-7.6" transform="translate(-149.394 -141.484)" fill="#e0007a"/>
        <path id="Path_167" data-name="Path 167" d="M182.566,208.394l7.28,15.8h8.4l-7.264-15.8h-8.415" transform="translate(-140.113 -141.484)" fill="#ffbe1a"/>
        <path id="Path_168" data-name="Path 168" d="M176.154,281l33.964-68.106,31.454,63.26h15.783v-23.1c29.078,1.192,29.078-15.79,27.833-19.451-2.39-12.208-13.288-17.061-16.935-17.061H246.438v7.3H263.36c21.828,2.469,13.413,24.284,0,21.914H246.438v20.65h-4.866V242.1h20.656c15.7-1.271,9.673-14.605,3.635-13.413H241.572V211.708h26.681c6.025,1.185,12.149,4.833,14.545,7.289V198.288l20.656,21.894v42.564H326.4L338.557,281H237.937l-27.82-55.964L189.534,265.2h3.628L201.6,281ZM328.9,276.153l-4.873-8.567H298.569V222.645c-1.245,0-10.884-10.937-10.884-10.937v13.327c9.64,13.407,0,35.314-24.324,32.865v18.253" transform="translate(-176.154 -198.288)" fill="#003e92"/>
      </g>
    </g>
  </g>
</svg>
