<svg id="asll" xmlns="http://www.w3.org/2000/svg" width="324.958" height="170.751" viewBox="0 0 324.958 170.751">
  <g id="Group_110" data-name="Group 110" transform="translate(0 150.122)">
    <g id="Group_109" data-name="Group 109">
      <g id="Group_108" data-name="Group 108">
        <g id="Group_106" data-name="Group 106">
          <g id="Group_105" data-name="Group 105">
            <path id="Path_508" data-name="Path 508" d="M428.725,189.858l-1.437,5.124h-4.681l6.117-19.988h5.939l6.2,19.988h-4.873l-1.543-5.124Zm5.065-3.383-1.245-4.231c-.344-1.192-.722-2.681-1.006-3.86h-.053c-.3,1.178-.6,2.688-.934,3.86l-1.192,4.231Z" transform="translate(-422.608 -174.677)" fill="#1a1818"/>
            <path id="Path_509" data-name="Path 509" d="M425.807,174.995h4.476v8.845h.112c.437-.761.92-1.489,1.344-2.2l4.555-6.647h5.541l-6.627,8.521,6.985,11.467H436.91L432,186.356l-1.722,2.105v6.521h-4.476Z" transform="translate(-404.628 -174.677)" fill="#1a1818"/>
            <path id="Path_510" data-name="Path 510" d="M433.124,174.995v19.988H428.6V174.995Z" transform="translate(-388.918 -174.677)" fill="#1a1818"/>
            <path id="Path_511" data-name="Path 511" d="M435.519,174.995h4.515v12.632c0,5.694-2.728,7.68-7.117,7.68a11.22,11.22,0,0,1-3.3-.483l.51-3.635a7.2,7.2,0,0,0,2.324.358c1.88,0,3.065-.874,3.065-3.966Z" transform="translate(-383.197 -174.677)" fill="#1a1818"/>
            <path id="Path_512" data-name="Path 512" d="M433.553,190.591a11.462,11.462,0,0,0,5,1.245c2.079,0,3.178-.854,3.178-2.165,0-1.245-.94-1.946-3.35-2.814-3.317-1.139-5.475-2.979-5.475-5.906,0-3.4,2.847-6,7.541-6a12.365,12.365,0,0,1,5.111,1.013l-1.02,3.648a9.366,9.366,0,0,0-4.158-.953c-1.966,0-2.926.887-2.926,1.927,0,1.278,1.139,1.827,3.727,2.82,3.522,1.291,5.171,3.151,5.171,5.952,0,3.35-2.589,6.2-8.064,6.2a13.009,13.009,0,0,1-5.647-1.225Z" transform="translate(-366.228 -174.947)" fill="#1a1818"/>
            <path id="Path_513" data-name="Path 513" d="M439.751,174.995v7.693h7.435v-7.693h4.5v19.988h-4.5v-8.362h-7.435v8.362h-4.535V174.995Z" transform="translate(-351.744 -174.677)" fill="#1a1818"/>
            <path id="Path_514" data-name="Path 514" d="M442.862,174.995v19.988h-4.515V174.995Z" transform="translate(-334.146 -174.677)" fill="#1a1818"/>
            <path id="Path_515" data-name="Path 515" d="M439.666,175.378a38.249,38.249,0,0,1,6.078-.4c2.8,0,4.786.536,6.117,1.616a5.8,5.8,0,0,1,2.159,4.6,6.4,6.4,0,0,1-1.861,4.754,9.3,9.3,0,0,1-6.508,2.105,11.989,11.989,0,0,1-1.516-.093V195.1h-4.469Zm4.469,9.07a6.494,6.494,0,0,0,1.516.132c2.4,0,3.866-1.225,3.866-3.264,0-1.847-1.271-2.94-3.542-2.94a7.257,7.257,0,0,0-1.841.179Z" transform="translate(-326.732 -174.795)" fill="#1a1818"/>
            <path id="Path_516" data-name="Path 516" d="M442.308,175.378a38.831,38.831,0,0,1,6.1-.4c2.787,0,4.767.536,6.1,1.616a5.722,5.722,0,0,1,2.152,4.6,6.315,6.315,0,0,1-1.847,4.754,9.25,9.25,0,0,1-6.481,2.105,13.182,13.182,0,0,1-1.569-.093V195.1h-4.455Zm4.455,9.07a6.9,6.9,0,0,0,1.53.132c2.41,0,3.88-1.225,3.88-3.264,0-1.847-1.258-2.94-3.522-2.94a7.973,7.973,0,0,0-1.887.179Z" transform="translate(-311.882 -174.795)" fill="#1a1818"/>
            <path id="Path_517" data-name="Path 517" d="M449.513,174.995v19.988h-4.562V174.995Z" transform="translate(-297.027 -174.677)" fill="#1a1818"/>
            <path id="Path_518" data-name="Path 518" d="M446.27,194.983V174.995h5.283l4.144,7.322a53.857,53.857,0,0,1,3.277,6.859h.093a69.4,69.4,0,0,1-.391-8.315v-5.866h4.144v19.988h-4.74l-4.257-7.706a65.482,65.482,0,0,1-3.469-7.071l-.073.033c.086,2.642.152,5.455.152,8.733v6.011Z" transform="translate(-289.614 -174.677)" fill="#1a1818"/>
            <path id="Path_519" data-name="Path 519" d="M466.877,194.242a22.451,22.451,0,0,1-6.667,1.119c-3.648,0-6.283-.907-8.13-2.695a9.673,9.673,0,0,1-2.814-7.269c.026-6.621,4.853-10.434,11.421-10.434a13.738,13.738,0,0,1,5.548.993l-.953,3.615a11.088,11.088,0,0,0-4.661-.867c-3.76,0-6.614,2.145-6.614,6.468,0,4.111,2.576,6.554,6.3,6.554a5.864,5.864,0,0,0,2.218-.3v-4.178h-3.066v-3.529h7.422Z" transform="translate(-272.775 -174.857)" fill="#1a1818"/>
            <path id="Path_520" data-name="Path 520" d="M453.451,174.995h4.522v16.194h7.951v3.794H453.451Z" transform="translate(-249.252 -174.677)" fill="#1a1818"/>
            <path id="Path_521" data-name="Path 521" d="M460.317,174.995v19.988h-4.535V174.995Z" transform="translate(-236.151 -174.677)" fill="#1a1818"/>
            <path id="Path_522" data-name="Path 522" d="M457.1,194.983V174.995h5.27l4.164,7.322a58.592,58.592,0,0,1,3.251,6.859h.079a73.963,73.963,0,0,1-.364-8.315v-5.866h4.144v19.988H468.9l-4.277-7.706a73.825,73.825,0,0,1-3.469-7.071l-.073.033c.113,2.642.179,5.455.179,8.733v6.011Z" transform="translate(-228.731 -174.677)" fill="#1a1818"/>
            <path id="Path_523" data-name="Path 523" d="M472.119,186.528H464.77v4.754h8.2v3.7H460.235V174.995h12.314v3.727H464.77v4.145h7.348Z" transform="translate(-211.122 -174.677)" fill="#1a1818"/>
            <path id="Path_524" data-name="Path 524" d="M463.618,174.995h4.535v16.194h7.938v3.794H463.618Z" transform="translate(-192.108 -174.677)" fill="#1a1818"/>
            <path id="Path_525" data-name="Path 525" d="M470.619,178.8h-5.363v-3.807h15.353V178.8h-5.456v16.181h-4.535Z" transform="translate(-182.901 -174.677)" fill="#1a1818"/>
            <path id="Path_526" data-name="Path 526" d="M467.982,175.378a40.188,40.188,0,0,1,6.078-.4c3.813,0,6.257.675,8.21,2.145,2.066,1.523,3.376,4,3.376,7.514,0,3.827-1.4,6.462-3.33,8.09-2.105,1.754-5.29,2.576-9.209,2.576a38.312,38.312,0,0,1-5.124-.285Zm4.542,16.307a6.668,6.668,0,0,0,1.536.106c4.111.02,6.773-2.231,6.773-7,.033-4.164-2.4-6.349-6.29-6.349a8.141,8.141,0,0,0-2.019.179Z" transform="translate(-167.58 -174.795)" fill="#1a1818"/>
            <path id="Path_527" data-name="Path 527" d="M470.892,180a2.594,2.594,0,0,1,2.655-2.761A2.743,2.743,0,1,1,470.892,180Z" transform="translate(-151.224 -162.087)" fill="#1a1818"/>
          </g>
        </g>
      </g>
    </g>
  </g>
  <g id="Group_121" data-name="Group 121" transform="translate(90.967)">
    <g id="Group_120" data-name="Group 120">
      <path id="Path_546" data-name="Path 546" d="M573.924,265.239c0,13.592-10.348,24.6-23.086,24.6H459.414c-12.738,0-23.066-11-23.066-24.6V176.861c0-13.572,10.328-24.589,23.066-24.589h91.424c12.738,0,23.086,11.017,23.086,24.589Z" transform="translate(-436.348 -152.272)" fill="#00a1ed"/>
      <g id="Group_111" data-name="Group 111" transform="translate(7.036 7.031)">
        <path id="Path_547" data-name="Path 547" d="M511.59,168.468a48.468,48.468,0,0,0-30.137,1.741l-1.88-3.9-1.046.51-.106-.119a10.767,10.767,0,0,1-2.622-4.648c-.172-.457-.318-.973-.477-1.45-.582-1.913-1.152-3.7-2.588-4.237a2.618,2.618,0,0,0-2.178.192v.02a2.594,2.594,0,0,0-1.4,1.6c-.424,1.47.7,2.979,1.861,4.575.318.424.635.834.887,1.251a11.969,11.969,0,0,1,2.284,5l-.053.04h0l-.993.477,1.86,3.827a48.114,48.114,0,0,0-20.087,22.523l-4.085-1.423-.384,1.1h-.165a10.984,10.984,0,0,1-5.151-1.437l-1.364-.688c-1.754-.92-3.423-1.788-4.82-1.185a2.651,2.651,0,0,0-1.377,1.682v.02a2.684,2.684,0,0,0,.119,2.125c.762,1.324,2.622,1.629,4.575,1.927.5.073,1.026.146,1.5.252a11.306,11.306,0,0,1,5.151,1.933l-.013.053-.351,1.039,3.979,1.384a48.347,48.347,0,0,0,1.761,30.144l-3.919,1.874.51,1.059-.119.113a11.028,11.028,0,0,1-4.641,2.609c-.483.172-.973.331-1.436.477-1.914.6-3.7,1.152-4.25,2.582a2.724,2.724,0,0,0,.192,2.178h.02a2.58,2.58,0,0,0,1.6,1.417c1.47.41,2.979-.7,4.588-1.874.424-.3.834-.622,1.258-.887a11.374,11.374,0,0,1,4.992-2.264v.033l.5,1.006,3.833-1.834a54.13,54.13,0,0,0,3.985,5.859,48.791,48.791,0,0,0,18.531,14.208l-1.417,4.078,1.1.391v.159a10.977,10.977,0,0,1-1.437,5.131c-.2.45-.464.927-.689,1.364-.927,1.761-1.794,3.443-1.172,4.826a2.689,2.689,0,0,0,1.682,1.4v-.02a2.584,2.584,0,0,0,2.145-.126c1.324-.741,1.589-2.6,1.893-4.568.093-.49.166-1.006.265-1.509a11.33,11.33,0,0,1,1.953-5.131l.033.013,1.059.377,1.383-4.045a48.2,48.2,0,0,0,30.144-1.715l1.874,3.893,1.033-.5.119.133a11.169,11.169,0,0,1,2.642,4.621c.139.477.318.973.443,1.47.589,1.9,1.152,3.681,2.589,4.23a2.637,2.637,0,0,0,2.178-.212v-.013a2.562,2.562,0,0,0,1.41-1.6c.4-1.47-.7-2.973-1.894-4.575-.285-.4-.583-.847-.867-1.258a11.4,11.4,0,0,1-2.264-5.012h.053l.993-.5-1.84-3.827a48.573,48.573,0,0,0,20.087-22.517l4.078,1.41.391-1.092h.159a11.07,11.07,0,0,1,5.118,1.437c.464.205.92.457,1.377.7,1.761.927,3.423,1.794,4.787,1.152a2.6,2.6,0,0,0,1.424-1.7h-.02a2.45,2.45,0,0,0-.139-2.105c-.748-1.324-2.569-1.609-4.542-1.913a13.25,13.25,0,0,1-1.51-.265A11.354,11.354,0,0,1,549.4,230l.02-.033.371-1.046-4.025-1.4a48.11,48.11,0,0,0-1.7-30.143l3.867-1.874-.5-1.066.106-.106a10.731,10.731,0,0,1,4.661-2.6,13.887,13.887,0,0,1,1.456-.483c1.894-.6,3.681-1.145,4.23-2.582a2.662,2.662,0,0,0-.212-2.178h0a2.559,2.559,0,0,0-1.615-1.4c-1.45-.424-2.953.688-4.568,1.86-.41.318-.828.622-1.245.887a11.44,11.44,0,0,1-5.012,2.271l-.033-.033h0l-.463-1.02-3.827,1.867a46.631,46.631,0,0,0-4.006-5.866,47.829,47.829,0,0,0-18.524-14.214l1.411-4.091-1.1-.384V166.2a11.371,11.371,0,0,1,1.456-5.131c.192-.444.444-.907.689-1.37.92-1.754,1.788-3.416,1.165-4.82a2.609,2.609,0,0,0-1.715-1.384h0a2.546,2.546,0,0,0-2.112.146c-1.3.728-1.628,2.6-1.893,4.555-.1.5-.172,1.013-.285,1.5a11.516,11.516,0,0,1-1.927,5.158l-.06-.04h.02l-1.059-.344Z" transform="translate(-437.411 -153.334)" fill="#fff"/>
      </g>
      <g id="Group_113" data-name="Group 113" transform="translate(24.324 24.648)">
        <g id="Group_112" data-name="Group 112">
          <path id="Path_548" data-name="Path 548" d="M448.881,168.142l-.986,1.788,1.874,1.86,1.807-.98,1.755,1.741-9.2,4.926-2.284-2.251,4.833-9.262Zm-1.006,4.846-1.152-1.145-1.457,2.622Z" transform="translate(-429.748 -99.963)" fill="#002581"/>
          <path id="Path_549" data-name="Path 549" d="M448.984,164.6l1.615,2.9-2.5,3.317,1.768.192,2.019-1.1,1.384,2.5-8.752,4.787-1.364-2.516,3.608-1.966-4.919-.424-1.311-2.377,4.376.45Z" transform="translate(-437.133 -107.636)" fill="#002581"/>
          <path id="Path_550" data-name="Path 550" d="M440.215,166.656l9.62-2.708.794,2.906-9.58,2.715Z" transform="translate(-438.937 -111.295)" fill="#002581"/>
          <path id="Path_551" data-name="Path 551" d="M440.022,163.7l6.276-.655a7.861,7.861,0,0,1,2.211.033,2.167,2.167,0,0,1,1.291.887,3.78,3.78,0,0,1,.642,1.953,8.947,8.947,0,0,1-.02,2.033l-2.4.252a3.213,3.213,0,0,0,.073-1.185c-.053-.45-.152-.755-.384-.887a1.6,1.6,0,0,0-1.132-.159l-6.243.636Z" transform="translate(-440.022 -116.712)" fill="#002581"/>
          <path id="Path_552" data-name="Path 552" d="M446.261,170.1l.212-2.854a1.672,1.672,0,0,0,1.615-1.47c.192-.742.086-1.159-.3-1.258a.612.612,0,0,0-.55.119,3.012,3.012,0,0,0-.549.854,6.553,6.553,0,0,1-2.106,2.906,2.672,2.672,0,0,1-2.019.232,3.007,3.007,0,0,1-2.006-1.6,4.272,4.272,0,0,1-.139-3.191,3.777,3.777,0,0,1,3.33-3.257l.119,2.622a1.56,1.56,0,0,0-1.364,1.271c-.152.642-.053,1.026.358,1.119a.462.462,0,0,0,.476-.106,2.344,2.344,0,0,0,.517-.761,21.95,21.95,0,0,1,1.258-2.291,2.9,2.9,0,0,1,3.032-1.006,3,3,0,0,1,2.052,1.774,5.228,5.228,0,0,1,.126,3.324Q449.415,170.013,446.261,170.1Z" transform="translate(-439.137 -130.213)" fill="#002581"/>
          <path id="Path_553" data-name="Path 553" d="M444.959,158.729l8.56,5.144-1.556,2.6-3.33-2.019-1.172,2.006,3.31,1.98L449.2,171.05l-8.534-5.138,1.569-2.589,3.125,1.88,1.2-1.986-3.158-1.9Z" transform="translate(-436.425 -140.628)" fill="#002581"/>
          <path id="Path_554" data-name="Path 554" d="M443.9,157.887l7.137,6.965-2.118,2.158-7.15-6.945Z" transform="translate(-430.203 -145.361)" fill="#002581"/>
          <path id="Path_555" data-name="Path 555" d="M448.636,163.907l1.986,3.039-2.569,1.675-5.475-8.342,3.542-2.3a6.1,6.1,0,0,1,2.2-1.006,2.885,2.885,0,0,1,1.7.212,3.017,3.017,0,0,1,1.324,1.152,2.929,2.929,0,0,1,.45,2.443,3.708,3.708,0,0,1-1.721,2.178Zm-1.205-1.768.848-.549c.768-.5.927-1.026.549-1.576-.311-.51-.834-.55-1.523-.093l-.94.622Z" transform="translate(-425.656 -150.765)" fill="#002581"/>
          <path id="Path_556" data-name="Path 556" d="M449.038,162.992l1.013,3.482-2.92.861-2.86-9.547,4.045-1.225a6.172,6.172,0,0,1,2.41-.318,2.95,2.95,0,0,1,1.576.688,3.083,3.083,0,0,1,.92,1.49,2.878,2.878,0,0,1-.285,2.483,3.809,3.809,0,0,1-2.264,1.6Zm-.669-2.052.993-.278c.847-.265,1.185-.7.986-1.337-.172-.6-.669-.775-1.43-.55l-1.079.325Z" transform="translate(-416.14 -154.722)" fill="#002581"/>
          <path id="Path_557" data-name="Path 557" d="M449.082,156.011l.675,9.938-3.012.212-.675-9.957Z" transform="translate(-406.029 -155.905)" fill="#002581"/>
          <path id="Path_558" data-name="Path 558" d="M455.294,167.191l-2.423-.391-1.986-4.787a19.39,19.39,0,0,1-.688-2.211,7.8,7.8,0,0,1-.033,1.662l-.762,4.773-2.43-.4,1.576-9.845,2.84.464,1.682,3.966a13.94,13.94,0,0,1,.722,2.059,15.512,15.512,0,0,1,.2-2.628l.463-2.9,2.443.384Z" transform="translate(-400.959 -155.995)" fill="#002581"/>
          <path id="Path_559" data-name="Path 559" d="M457.757,163.183l-2.516,5-1.324-.675a5.657,5.657,0,0,0,.119-1.119,3.221,3.221,0,0,1-2.973-.159,3.994,3.994,0,0,1-2.185-2.6,5.209,5.209,0,0,1,.556-3.827,5.738,5.738,0,0,1,2.761-2.814,4.9,4.9,0,0,1,5.959,2.337,4.114,4.114,0,0,1,.079,2.926l-2.728-1.073c.324-1.006.146-1.642-.53-1.993-.887-.45-1.754.172-2.609,1.893a3.926,3.926,0,0,0-.616,2.251,1.58,1.58,0,0,0,.8,1.006,1.408,1.408,0,0,0,.967.119,1.121,1.121,0,0,0,.781-.649l-1.463-.728.966-1.9Z" transform="translate(-391.14 -152.431)" fill="#002581"/>
          <path id="Path_560" data-name="Path 560" d="M456.8,168.159l-1.88,1.6-4.482-5.263,7.627-6.468,1.966,2.324-5.76,4.866Z" transform="translate(-381.483 -144.596)" fill="#002581"/>
          <path id="Path_561" data-name="Path 561" d="M461.383,161.939l-8.719,4.833-1.437-2.635,8.7-4.859Z" transform="translate(-377.043 -137.543)" fill="#002581"/>
          <path id="Path_562" data-name="Path 562" d="M453.9,171.138l-.656-2.377,3.509-3.794a17.466,17.466,0,0,1,1.681-1.576,6.31,6.31,0,0,1-1.5.669l-4.641,1.337-.675-2.377,9.6-2.728.782,2.761-2.887,3.2a12.684,12.684,0,0,1-1.555,1.529,14.56,14.56,0,0,1,2.463-.94l2.807-.8.7,2.383Z" transform="translate(-374.846 -131.838)" fill="#002581"/>
          <path id="Path_563" data-name="Path 563" d="M454.361,169.717l-2.377-.013.073-7.428,9.957.113-.073,7.4-2.278-.013.006-4.469-1.41-.02-.053,3.615-2.2-.02.02-3.595-1.629-.013Z" transform="translate(-372.789 -120.698)" fill="#002581"/>
          <path id="Path_564" data-name="Path 564" d="M453.655,171.619l-2.264-.927,2.582-6.415,9.249,3.761-1.132,2.8L455.105,168Z" transform="translate(-376.122 -109.445)" fill="#002581"/>
          <path id="Path_565" data-name="Path 565" d="M457.238,172.11l-6.27-4.25,1.589-2.357,6.309,4.257L460,168.078l1.973,1.324-3.9,5.76-1.973-1.351Z" transform="translate(-378.499 -102.554)" fill="#002581"/>
          <path id="Path_566" data-name="Path 566" d="M454.668,166.284l6.535,7.554-2.887,2.476a4.523,4.523,0,0,1-3.774,1.331,5.207,5.207,0,0,1-3.211-1.807,4.927,4.927,0,0,1-1.377-3.615,4.446,4.446,0,0,1,1.7-3.31Zm-.781,3.727-.6.51a1.534,1.534,0,0,0-.457,1.384,3.371,3.371,0,0,0,.9,1.861A4.012,4.012,0,0,0,455.3,174.9a1.433,1.433,0,0,0,1.523-.285l.6-.51Z" transform="translate(-384.238 -98.165)" fill="#002581"/>
        </g>
        <path id="Path_567" data-name="Path 567" d="M452.427,171.245a3.082,3.082,0,1,1-3.1-3.085A3.091,3.091,0,0,1,452.427,171.245Z" transform="translate(-404.944 -87.621)" fill="#002581"/>
      </g>
      <g id="Group_119" data-name="Group 119" transform="translate(38.339 38.74)">
        <g id="Group_114" data-name="Group 114">
          <path id="Path_568" data-name="Path 568" d="M459.639,167.2H445.683A30.483,30.483,0,0,0,459.639,167.2Z" transform="translate(-422.219 -107.097)" fill="#00a1ed"/>
          <path id="Path_569" data-name="Path 569" d="M496.442,169.613a30.447,30.447,0,0,0-48.383,36.956H497.17A30.453,30.453,0,0,0,496.442,169.613Z" transform="translate(-442.139 -158.124)" fill="#00a1ed"/>
          <path id="Path_570" data-name="Path 570" d="M446.057,168.569H486.31a26.578,26.578,0,0,0,2.84-2.82H443.276A30.349,30.349,0,0,0,446.057,168.569Z" transform="translate(-435.748 -115.264)" fill="#00a1ed"/>
          <path id="Path_571" data-name="Path 571" d="M448.792,169.2h25.734a30.066,30.066,0,0,0,4.674-2.714H444.085A29.81,29.81,0,0,0,448.792,169.2Z" transform="translate(-431.201 -111.127)" fill="#00a1ed"/>
        </g>
        <g id="Group_118" data-name="Group 118" transform="translate(5.708 2.932)">
          <g id="Group_116" data-name="Group 116" transform="translate(7.137)">
            <path id="Path_572" data-name="Path 572" d="M461.284,162.5l17.36,7.908V160.362H444.079v9.886Z" transform="translate(-444.079 -148.472)" fill="#fff"/>
            <g id="Group_115" data-name="Group 115" transform="translate(8.489)">
              <path id="Path_573" data-name="Path 573" d="M459.392,162.821h3.523v5.347H445.361v-5.347h3.628v-4.254h10.4v4.254Z" transform="translate(-445.361 -158.566)" fill="#fff"/>
            </g>
          </g>
          <g id="Group_117" data-name="Group 117" transform="translate(0 17.065)">
            <path id="Path_574" data-name="Path 574" d="M466.245,161.144,448.456,169.1c-9.448,3.257-3.754,17.267-3.754,17.267h21.543Z" transform="translate(-443.001 -161.144)" fill="#fff"/>
            <path id="Path_575" data-name="Path 575" d="M446.87,186.352H468.4s5.654-14.009-3.754-17.267l-17.776-7.938Z" transform="translate(-421.256 -161.127)" fill="#fff"/>
          </g>
        </g>
      </g>
    </g>
  </g>
</svg>
