<svg xmlns="http://www.w3.org/2000/svg" width="324.945" height="186.047" viewBox="0 0 324.945 186.047">
  <g id="apl" transform="translate(0 0)">
    <g id="Group_167" data-name="Group 167" transform="translate(74.389)">
      <g id="Group_165" data-name="Group 165" transform="translate(20.57 60.43)">
        <g id="Group_164" data-name="Group 164">
          <path id="Path_636" data-name="Path 636" d="M113.81,230.354a730.518,730.518,0,0,1,46.43-59.923s14.963-23.225,34.44-.741c0,0,33.222,40.677,47.43,60.9,0,0-41.7-41.438-53.044-56.222,0,0-12.42-12.559-24.337,1.317C151.958,190.524,124.191,218.834,113.81,230.354Z" transform="translate(-113.81 -159.885)" fill="#babcbf" fill-rule="evenodd"/>
        </g>
      </g>
      <g id="Group_166" data-name="Group 166">
        <path id="Path_637" data-name="Path 637" d="M139.9,187.836s23.768-17.73,41.928-12.082c-2.436-3.959-4.913-7.9-7.4-11.851-5.72-8.964-10.48-13.268-14.982-13.142-3.516.086-7.753,4.356-10.772,8.574-.953,1.344-1.854,2.635-2.781,3.721-7.521,8.819-18.24,27.515-29.031,48.191C127.613,195.443,139.9,187.836,139.9,187.836Z" transform="translate(-76.091 -150.758)" fill="#002581"/>
        <path id="Path_638" data-name="Path 638" d="M206.159,179.439c20.3,14.261,71.853,85.889,72.376,86.617l1.708-.993A1117.382,1117.382,0,0,0,227.51,164.748a41.961,41.961,0,0,1-7.355,15.558l-.8-.238c4.9-6.548,2.436-17.677-5.846-22.868,0,0-30.011-13.129-72.8,46.152.079-.265-.324.642-.238.4C124.308,236.184,110.961,266,110.7,266.572l1.774.867c19.9-38.373,68.953-86.888,69.41-87.332,4.363-3.734,8.772-5.614,13.076-5.614C194.963,174.493,200.141,173.891,206.159,179.439Z" transform="translate(-110.703 -121.499)" fill="#002581"/>
      </g>
    </g>
    <g id="Group_173" data-name="Group 173" transform="translate(0 159.83)">
      <g id="Group_172" data-name="Group 172">
        <path id="Path_657" data-name="Path 657" d="M107.22,193.823l-1.8,6.541H99.467l7.753-25.4h7.547l7.865,25.4h-6.17l-1.96-6.541Zm6.468-4.284-1.6-5.383c-.457-1.509-.907-3.39-1.278-4.912h-.079c-.371,1.523-.742,3.436-1.159,4.912l-1.5,5.383Z" transform="translate(-99.467 -174.551)" fill="#1a1818"/>
        <path id="Path_658" data-name="Path 658" d="M103.535,174.961h5.7v11.228h.113c.549-.986,1.159-1.893,1.728-2.8l5.773-8.428h7.044l-8.415,10.825,8.865,14.579H117.63L111.413,189.4l-2.178,2.675v8.289h-5.7Z" transform="translate(-76.602 -174.551)" fill="#1a1818"/>
        <path id="Path_659" data-name="Path 659" d="M112.865,174.961v25.4h-5.78v-25.4Z" transform="translate(-56.649 -174.551)" fill="#1a1818"/>
        <path id="Path_660" data-name="Path 660" d="M115.886,174.961h5.727v16.048c0,7.23-3.482,9.759-9.05,9.759a15.125,15.125,0,0,1-4.178-.6l.636-4.648a9.34,9.34,0,0,0,2.926.45c2.423,0,3.939-1.079,3.939-5.032Z" transform="translate(-49.343 -174.551)" fill="#1a1818"/>
        <path id="Path_661" data-name="Path 661" d="M112.366,175.462a46.737,46.737,0,0,1,7.753-.53c3.562,0,6.1.669,7.786,2.033a7.423,7.423,0,0,1,2.7,5.879,8.172,8.172,0,0,1-2.317,6.045c-1.98,1.821-4.866,2.655-8.263,2.655a17.8,17.8,0,0,1-1.96-.1v9.083h-5.7Zm5.7,11.533a8.468,8.468,0,0,0,1.913.152c3.052,0,4.939-1.556,4.939-4.164,0-2.317-1.609-3.734-4.489-3.734a9.871,9.871,0,0,0-2.364.232Z" transform="translate(-26.967 -174.714)" fill="#1a1818"/>
        <path id="Path_662" data-name="Path 662" d="M115.729,174.961H121.5v20.564h10.116v4.84H115.729Z" transform="translate(-8.065 -174.551)" fill="#1a1818"/>
        <path id="Path_663" data-name="Path 663" d="M126.217,193.823l-1.834,6.541h-5.932l7.766-25.4h7.541l7.865,25.4h-6.177l-1.966-6.541Zm6.442-4.284-1.589-5.383c-.45-1.509-.9-3.39-1.271-4.912h-.086c-.357,1.523-.748,3.436-1.159,4.912l-1.523,5.383Z" transform="translate(7.234 -174.551)" fill="#1a1818"/>
        <path id="Path_664" data-name="Path 664" d="M123.562,194.794a14.626,14.626,0,0,0,6.356,1.582c2.648,0,4.039-1.1,4.039-2.767,0-1.576-1.218-2.463-4.264-3.555-4.217-1.476-6.978-3.82-6.978-7.514,0-4.33,3.621-7.64,9.62-7.64a15.642,15.642,0,0,1,6.475,1.258l-1.284,4.661a11.96,11.96,0,0,0-5.323-1.225c-2.463,0-3.668,1.132-3.668,2.463,0,1.616,1.43,2.324,4.687,3.582,4.5,1.662,6.607,3.986,6.607,7.561,0,4.277-3.284,7.885-10.249,7.885a16.544,16.544,0,0,1-7.21-1.543Z" transform="translate(29.261 -174.899)" fill="#1a1818"/>
        <path id="Path_665" data-name="Path 665" d="M132.166,179.781H125.36v-4.82h19.517v4.82h-6.945v20.583h-5.766Z" transform="translate(46.067 -174.551)" fill="#1a1818"/>
        <path id="Path_666" data-name="Path 666" d="M134.592,174.961v25.4h-5.767v-25.4Z" transform="translate(65.542 -174.551)" fill="#1a1818"/>
        <path id="Path_667" data-name="Path 667" d="M150.148,199.991a16.29,16.29,0,0,1-6.5,1.092c-8.792,0-13.321-5.475-13.321-12.7,0-8.66,6.183-13.479,13.883-13.479a15.1,15.1,0,0,1,6.25,1.112l-1.185,4.575a12.241,12.241,0,0,0-4.8-.96c-4.581,0-8.11,2.767-8.11,8.421,0,5.078,3,8.276,8.137,8.276a14.634,14.634,0,0,0,4.774-.814Z" transform="translate(73.979 -174.899)" fill="#1a1818"/>
        <path id="Path_668" data-name="Path 668" d="M134.963,194.794a14.77,14.77,0,0,0,6.376,1.582c2.628,0,4.012-1.1,4.012-2.767,0-1.576-1.185-2.463-4.244-3.555-4.224-1.476-6.971-3.82-6.971-7.514,0-4.33,3.615-7.64,9.62-7.64a15.715,15.715,0,0,1,6.475,1.258l-1.278,4.661a12.069,12.069,0,0,0-5.33-1.225c-2.489,0-3.694,1.132-3.694,2.463,0,1.616,1.437,2.324,4.714,3.582,4.489,1.662,6.607,3.986,6.607,7.561,0,4.277-3.3,7.885-10.255,7.885a16.456,16.456,0,0,1-7.2-1.543Z" transform="translate(93.493 -174.899)" fill="#1a1818"/>
        <path id="Path_669" data-name="Path 669" d="M138.282,174.961h5.76v20.564h10.1v4.84H138.282Z" transform="translate(118.696 -174.551)" fill="#1a1818"/>
        <path id="Path_670" data-name="Path 670" d="M147.178,179.781h-6.813v-4.82h19.517v4.82h-6.925v20.583h-5.78Z" transform="translate(130.404 -174.551)" fill="#1a1818"/>
        <path id="Path_671" data-name="Path 671" d="M143.83,175.462a51.409,51.409,0,0,1,7.766-.53c4.82,0,7.951.867,10.407,2.708,2.635,1.966,4.3,5.078,4.3,9.58,0,4.86-1.781,8.2-4.237,10.3-2.675,2.211-6.753,3.271-11.725,3.271a51.806,51.806,0,0,1-6.515-.371Zm5.767,20.729a12,12,0,0,0,2,.1c5.191.04,8.593-2.814,8.593-8.891.04-5.277-3.059-8.057-8-8.057a10.78,10.78,0,0,0-2.6.232Z" transform="translate(149.879 -174.714)" fill="#1a1818"/>
        <path id="Path_672" data-name="Path 672" d="M147.531,181.328a3.368,3.368,0,1,1,3.35,3.449A3.3,3.3,0,0,1,147.531,181.328Z" transform="translate(170.681 -158.56)" fill="#1a1818"/>
      </g>
    </g>
  </g>
</svg>
