<svg id="abfl" xmlns="http://www.w3.org/2000/svg" width="310.592" height="140.571" viewBox="0 0 310.592 140.571">
  <g id="Group_87" data-name="Group 87" transform="translate(0)">
    <path id="Path_412" data-name="Path 412" d="M390.337,212.351H633.689l21.523,35.32H359.064Z" transform="translate(-359.064 -107.1)" fill="#1a1818"/>
    <g id="Group_82" data-name="Group 82" transform="translate(184.652)">
      <g id="Group_81" data-name="Group 81">
        <path id="Path_413" data-name="Path 413" d="M428.468,294.029l-41.514.194,84.406-97.77h41.534Z" transform="translate(-386.954 -196.453)" fill="#ae0721"/>
        <path id="Path_414" data-name="Path 414" d="M471.4,337.024l17.521-.1-80.65-140.474H390.548Z" transform="translate(-366.755 -196.453)" fill="#ae0721"/>
      </g>
    </g>
    <g id="Group_84" data-name="Group 84" transform="translate(37.758 0.084)">
      <g id="Group_83" data-name="Group 83">
        <path id="Path_415" data-name="Path 415" d="M450.963,196.466h36.711v97.783H450.963V227.6l-55.479,66.451H364.767Z" transform="translate(-364.767 -196.466)" fill="#ae0721"/>
        <rect id="Rectangle_10" data-name="Rectangle 10" width="47.482" height="17.153" transform="translate(42.697 62.268)" fill="#ae0721"/>
      </g>
    </g>
    <g id="Group_85" data-name="Group 85" transform="translate(130.561 0.291)">
      <path id="Path_416" data-name="Path 416" d="M378.784,196.5h56.434q14.082,0,21.643,7a22.605,22.605,0,0,1,7.554,17.293,21.921,21.921,0,0,1-5.389,14.83c-2.39,2.754-5.9,4.912-10.527,6.521q10.526,2.522,15.466,8.679,4.975,6.157,4.965,15.472a26.484,26.484,0,0,1-3.529,13.632,26.22,26.22,0,0,1-9.633,9.58c-2.536,1.463-6.342,2.529-11.447,3.2a133.411,133.411,0,0,1-13.5,1.324H378.784Zm30.422,38.26h13.089c4.714,0,7.978-.808,9.818-2.436s2.748-3.952,2.748-7.011a8.338,8.338,0,0,0-2.748-6.654c-1.84-1.6-5.031-2.39-9.62-2.39H409.206Zm0,38.3h15.36c5.19,0,8.858-.894,10.964-2.741a9.324,9.324,0,0,0,3.211-7.415,8.567,8.567,0,0,0-3.171-6.951c-2.092-1.754-5.8-2.635-11.076-2.635H409.206Z" transform="translate(-378.784 -196.497)" fill="#ae0721"/>
    </g>
    <g id="Group_86" data-name="Group 86" transform="translate(26.665 113.311)">
      <path id="Path_417" data-name="Path 417" d="M373.432,229.36h-5.078l-.715,3.112h-4.548l5.435-18.855h4.893l5.442,18.855h-4.674Zm-.914-4.072-1.6-6.786-1.589,6.786Z" transform="translate(-363.091 -213.298)" fill="#fff"/>
      <path id="Path_418" data-name="Path 418" d="M365.689,213.616h4.482v7.124l4.7-7.124h5.952l-5.3,7.11,5.529,11.745h-5.508l-3.066-7.746-2.311,3.138v4.608h-4.482Z" transform="translate(-348.489 -213.298)" fill="#fff"/>
      <path id="Path_419" data-name="Path 419" d="M368.262,213.616h4.476v18.855h-4.476Z" transform="translate(-334.027 -213.298)" fill="#fff"/>
      <path id="Path_420" data-name="Path 420" d="M376.428,213.616h4.489v10.242a19.958,19.958,0,0,1-.45,4.906,5.634,5.634,0,0,1-1.748,2.854,5.044,5.044,0,0,1-3.423,1.172,6.349,6.349,0,0,1-3.4-.768,5.126,5.126,0,0,1-1.86-2.264,11.127,11.127,0,0,1-.781-3.668l4.29-.761a7.907,7.907,0,0,0,.159,1.854,2.41,2.41,0,0,0,.549.987,1.021,1.021,0,0,0,.728.225,1.139,1.139,0,0,0,1.1-.722,6.186,6.186,0,0,0,.351-2.43Z" transform="translate(-328.468 -213.298)" fill="#fff"/>
      <path id="Path_421" data-name="Path 421" d="M372.484,213.616h8.382a3.973,3.973,0,0,1,3.224,1.357,5.566,5.566,0,0,1,.318,6.2,3.724,3.724,0,0,1-1.576,1.251,4.017,4.017,0,0,1,2.3,1.675,5.635,5.635,0,0,1,.748,3.006,6.753,6.753,0,0,1-.517,2.642,4.79,4.79,0,0,1-1.436,1.841,3.871,3.871,0,0,1-1.7.616,14.345,14.345,0,0,1-2.019.265h-7.726Zm4.522,7.4h1.947a1.853,1.853,0,0,0,1.456-.47,1.943,1.943,0,0,0,.4-1.364,1.572,1.572,0,0,0-1.821-1.754h-1.986Zm0,7.409h2.284a2.1,2.1,0,0,0,1.629-.536,2.019,2.019,0,0,0,.477-1.43,1.845,1.845,0,0,0-.477-1.344,2.171,2.171,0,0,0-1.649-.51h-2.264Z" transform="translate(-310.297 -213.298)" fill="#fff"/>
      <path id="Path_422" data-name="Path 422" d="M374.888,213.616h4.5v18.855h-4.5Z" transform="translate(-296.785 -213.298)" fill="#fff"/>
      <path id="Path_423" data-name="Path 423" d="M386.193,229.36h-5.078l-.715,3.112h-4.568l5.436-18.855h4.9l5.436,18.855h-4.694Zm-.933-4.072-1.6-6.786-1.6,6.786Z" transform="translate(-291.479 -213.298)" fill="#fff"/>
      <path id="Path_424" data-name="Path 424" d="M378.668,213.616h4.926l2.556,5.793,2.516-5.793h4.873l-4.5,9.136,4.919,9.719H388.93l-2.873-6.058-2.847,6.058h-5l5-9.832Z" transform="translate(-278.108 -213.298)" fill="#fff"/>
      <path id="Path_425" data-name="Path 425" d="M381.829,213.616h11.076v4.052h-6.554v3.3h5.594v3.8h-5.594v7.706h-4.522Z" transform="translate(-257.772 -213.298)" fill="#fff"/>
      <path id="Path_426" data-name="Path 426" d="M383.9,213.616h4.482v18.855H383.9Z" transform="translate(-246.16 -213.298)" fill="#fff"/>
      <path id="Path_427" data-name="Path 427" d="M385.057,213.616h4.475v14.2h6.985v4.654h-11.46Z" transform="translate(-239.629 -213.298)" fill="#fff"/>
      <path id="Path_428" data-name="Path 428" d="M387.088,213.616h5.9l2.264,11.473,2.251-11.473h5.885v18.855H399.74v-14.38l-2.84,14.38h-3.33l-2.8-14.38v14.38h-3.681Z" transform="translate(-228.214 -213.298)" fill="#fff"/>
      <path id="Path_429" data-name="Path 429" d="M389.863,226.5l4.27-.338a5.042,5.042,0,0,0,.569,2.059,2.18,2.18,0,0,0,1.966,1.132,1.892,1.892,0,0,0,1.483-.576,2.02,2.02,0,0,0,.02-2.675,4.971,4.971,0,0,0-2.284-1.086,8.756,8.756,0,0,1-4.2-2.3,5.27,5.27,0,0,1-1.278-3.635,5.878,5.878,0,0,1,.655-2.748,4.664,4.664,0,0,1,1.953-2.033,7.111,7.111,0,0,1,3.555-.735,5.983,5.983,0,0,1,4.224,1.337,6.419,6.419,0,0,1,1.747,4.277l-4.21.324a3.454,3.454,0,0,0-.715-1.854,1.94,1.94,0,0,0-1.483-.576,1.569,1.569,0,0,0-1.192.424,1.5,1.5,0,0,0-.391,1.053,1.162,1.162,0,0,0,.338.808,3.159,3.159,0,0,0,1.49.7,15.944,15.944,0,0,1,4.217,1.668,5.16,5.16,0,0,1,1.841,2.079,6.549,6.549,0,0,1,.569,2.794,7.281,7.281,0,0,1-.768,3.343,5.29,5.29,0,0,1-2.139,2.324,6.975,6.975,0,0,1-3.489.788c-2.483,0-4.164-.622-5.124-1.854A8.543,8.543,0,0,1,389.863,226.5Z" transform="translate(-212.617 -213.568)" fill="#fff"/>
      <path id="Path_430" data-name="Path 430" d="M393.211,213.616h4.469v14.2h6.991v4.654h-11.46Z" transform="translate(-193.799 -213.298)" fill="#fff"/>
      <path id="Path_431" data-name="Path 431" d="M394.942,213.616h13.612v4.648h-4.568v14.208H399.5V218.264h-4.555Z" transform="translate(-184.07 -213.298)" fill="#fff"/>
      <path id="Path_432" data-name="Path 432" d="M397.311,213.616h6.66a6.288,6.288,0,0,1,3.171.7,5.406,5.406,0,0,1,2.006,1.993,9.558,9.558,0,0,1,1.145,3.026,17.963,17.963,0,0,1,.357,3.641,16.182,16.182,0,0,1-.529,4.687,8.073,8.073,0,0,1-1.476,2.787,4.607,4.607,0,0,1-2.013,1.509,7.946,7.946,0,0,1-2.661.516h-6.66Zm4.482,4.264v10.308h1.093a3.636,3.636,0,0,0,2.006-.417,2.569,2.569,0,0,0,.927-1.4,11.478,11.478,0,0,0,.331-3.277,7.914,7.914,0,0,0-.742-4.1,2.822,2.822,0,0,0-2.5-1.119Z" transform="translate(-170.755 -213.298)" fill="#fff"/>
      <path id="Path_433" data-name="Path 433" d="M399.591,215.67h4.284v5.257h-4.284Z" transform="translate(-157.94 -201.754)" fill="#fff"/>
    </g>
  </g>
</svg>
