<svg id="afbl" xmlns="http://www.w3.org/2000/svg" width="324.945" height="163.423" viewBox="0 0 324.945 163.423">
  <g id="Group_215" data-name="Group 215" transform="translate(0 147.573)">
    <g id="Group_214" data-name="Group 214">
      <g id="Group_213" data-name="Group 213">
        <path id="Path_812" data-name="Path 812" d="M112.948,149.313H109.1l-1-3.092h-5.316l-1,3.092H98.038l5.323-15.221h4.27Zm-5.733-5.872-1.774-5.455-1.768,5.455Z" transform="translate(-98.038 -133.774)" fill="#1a1818"/>
        <path id="Path_813" data-name="Path 813" d="M114.034,149.313h-4.555l-4.29-6.1-.867,1.132v4.972H100.6V134.092h3.721v6.892l5.144-6.892h4.29l-5.634,7.051Z" transform="translate(-83.632 -133.774)" fill="#1a1818"/>
        <path id="Path_814" data-name="Path 814" d="M111.232,149.313h-8.421V146.6h2.344v-9.805h-2.344v-2.7h8.421v2.7h-2.364V146.6h2.364Z" transform="translate(-71.211 -133.774)" fill="#1a1818"/>
        <path id="Path_815" data-name="Path 815" d="M113.273,144.837a5.211,5.211,0,0,1-.344,1.88,3.731,3.731,0,0,1-1.013,1.47,4.977,4.977,0,0,1-1.7,1.006,7.91,7.91,0,0,1-2.469.338c-.636,0-1.284-.027-1.86-.079a11.193,11.193,0,0,1-1.562-.212v-3.072h.357c.318.126.629.225.967.344a4.428,4.428,0,0,0,1.284.146,3.269,3.269,0,0,0,1.556-.278,1.738,1.738,0,0,0,.788-.8,3.071,3.071,0,0,0,.238-1.1q.04-.586.04-1.529V136.9h-3.29v-2.807h7.011Z" transform="translate(-62.718 -133.774)" fill="#1a1818"/>
        <path id="Path_816" data-name="Path 816" d="M117.549,137.038h-6.627v2.82h6.131v2.94h-6.131v6.515h-3.7V134.092h10.328Z" transform="translate(-46.424 -133.774)" fill="#1a1818"/>
        <path id="Path_817" data-name="Path 817" d="M123.872,141.976a8.219,8.219,0,0,1-1.966,5.767,7.992,7.992,0,0,1-10.911,0,9.539,9.539,0,0,1,0-11.566,8.021,8.021,0,0,1,10.891,0A8.179,8.179,0,0,1,123.872,141.976Zm-4.926,3.847a4.671,4.671,0,0,0,.808-1.635,8.578,8.578,0,0,0,.252-2.225,7.994,7.994,0,0,0-.291-2.331,4.914,4.914,0,0,0-.788-1.549,2.916,2.916,0,0,0-1.132-.881,3.2,3.2,0,0,0-1.344-.285,3.344,3.344,0,0,0-1.331.272,3.04,3.04,0,0,0-1.132.867,4.335,4.335,0,0,0-.794,1.576,9.238,9.238,0,0,0-.013,4.654,4.853,4.853,0,0,0,.775,1.562,3.1,3.1,0,0,0,1.139.887,3.393,3.393,0,0,0,1.357.285,3.189,3.189,0,0,0,1.37-.3A2.771,2.771,0,0,0,118.946,145.822Z" transform="translate(-36.189 -134.044)" fill="#1a1818"/>
        <path id="Path_818" data-name="Path 818" d="M126.432,141.976a8.2,8.2,0,0,1-1.979,5.767,7.967,7.967,0,0,1-10.891,0,9.437,9.437,0,0,1,0-11.566,8,8,0,0,1,10.878,0A8.182,8.182,0,0,1,126.432,141.976Zm-4.932,3.847a4.454,4.454,0,0,0,.808-1.635,8.855,8.855,0,0,0,.258-2.225,7.743,7.743,0,0,0-.3-2.331,4.31,4.31,0,0,0-.788-1.549,2.85,2.85,0,0,0-1.125-.881,3.247,3.247,0,0,0-1.344-.285,3.344,3.344,0,0,0-1.331.272,3.093,3.093,0,0,0-1.132.867,4.134,4.134,0,0,0-.788,1.576,8.083,8.083,0,0,0-.3,2.344,7.637,7.637,0,0,0,.3,2.311,5.123,5.123,0,0,0,.748,1.562,3.353,3.353,0,0,0,1.145.887,3.441,3.441,0,0,0,1.357.285,3.246,3.246,0,0,0,1.364-.3A2.833,2.833,0,0,0,121.5,145.822Z" transform="translate(-21.913 -134.044)" fill="#1a1818"/>
        <path id="Path_819" data-name="Path 819" d="M127.87,141.719a7.7,7.7,0,0,1-.94,3.787,6.874,6.874,0,0,1-2.3,2.6,7.057,7.057,0,0,1-2.324.92,13.879,13.879,0,0,1-2.973.285h-5.078V134.092h5.23a12.326,12.326,0,0,1,3.026.311A6.549,6.549,0,0,1,127,137.872,8.124,8.124,0,0,1,127.87,141.719Zm-3.84-.046a5.92,5.92,0,0,0-.53-2.556,3.672,3.672,0,0,0-1.629-1.668,3.735,3.735,0,0,0-1.178-.41,10.827,10.827,0,0,0-1.788-.1h-.933v9.514h.933a11.149,11.149,0,0,0,1.94-.126,3.836,3.836,0,0,0,1.218-.47,3.532,3.532,0,0,0,1.47-1.642A5.74,5.74,0,0,0,124.03,141.673Z" transform="translate(-6.911 -133.774)" fill="#1a1818"/>
        <path id="Path_820" data-name="Path 820" d="M133.909,149.583h-4.6l-1.344-1.3a6.633,6.633,0,0,1-2.138,1.2,7.428,7.428,0,0,1-2.45.4,6.235,6.235,0,0,1-4.2-1.3,4.63,4.63,0,0,1-1.278-4.919,4.121,4.121,0,0,1,.642-1.145,3.991,3.991,0,0,1,.874-.861,9.231,9.231,0,0,1,.927-.609c-.271-.212-.53-.43-.781-.662a4.239,4.239,0,0,1-.622-.761,2.814,2.814,0,0,1-.4-.867,3.617,3.617,0,0,1-.152-1.073,3.376,3.376,0,0,1,.285-1.35,3.95,3.95,0,0,1,.861-1.139,4.808,4.808,0,0,1,1.629-.821,7.453,7.453,0,0,1,2.39-.338,7.826,7.826,0,0,1,2.1.252,4.528,4.528,0,0,1,1.543.689,3.234,3.234,0,0,1,.92,1.046,3.02,3.02,0,0,1,.3,1.3,4.851,4.851,0,0,1-.132,1.026,2.859,2.859,0,0,1-.477,1.066,4.444,4.444,0,0,1-1,.993,5.807,5.807,0,0,1-1.675.814l2.946,2.741V140.7h3.608v1.132a6.681,6.681,0,0,1-.4,2.311,5.123,5.123,0,0,1-1.053,1.827l3.681,3.39Zm-7.66-3.019-4.1-3.873a2.821,2.821,0,0,0-.463.715,2.709,2.709,0,0,0-.252,1.192,2.545,2.545,0,0,0,.252,1.172,2.644,2.644,0,0,0,.616.814,2.562,2.562,0,0,0,.861.483,3.108,3.108,0,0,0,.92.165,4.17,4.17,0,0,0,1.159-.139A2.579,2.579,0,0,0,126.249,146.564Zm-1.443-8.779a1.816,1.816,0,0,0-.172-.847,1.124,1.124,0,0,0-.377-.47.9.9,0,0,0-.47-.2,1.745,1.745,0,0,0-.411-.046,1.191,1.191,0,0,0-.364.046,1.254,1.254,0,0,0-.463.218,1.109,1.109,0,0,0-.358.411,1.459,1.459,0,0,0-.159.748,1.841,1.841,0,0,0,.463,1.165,10.087,10.087,0,0,0,1.2,1.152,3,3,0,0,0,.834-.993A2.668,2.668,0,0,0,124.805,137.785Z" transform="translate(12.221 -134.044)" fill="#1a1818"/>
        <path id="Path_821" data-name="Path 821" d="M133.671,144.639a4.416,4.416,0,0,1-.424,1.979,3.77,3.77,0,0,1-1.145,1.437,5.422,5.422,0,0,1-1.874.96,9.617,9.617,0,0,1-2.575.3h-6.3V134.092h5.581a17.887,17.887,0,0,1,2.556.132,4.918,4.918,0,0,1,1.6.53,3.083,3.083,0,0,1,1.238,1.178,3.806,3.806,0,0,1,.377,1.7,3.475,3.475,0,0,1-.536,1.94,3.544,3.544,0,0,1-1.562,1.3v.08a4.157,4.157,0,0,1,2.244,1.238A3.5,3.5,0,0,1,133.671,144.639Zm-4.76-6.243a1.985,1.985,0,0,0-.172-.761,1.242,1.242,0,0,0-.642-.569,3.214,3.214,0,0,0-1.006-.165c-.4-.007-.967-.013-1.688-.013h-.357V140.1h.576c.583,0,1.086-.007,1.5-.033a2.267,2.267,0,0,0,.973-.205,1.155,1.155,0,0,0,.662-.6A2.41,2.41,0,0,0,128.911,138.4Zm.907,6.184a1.945,1.945,0,0,0-.265-1.112,1.677,1.677,0,0,0-.907-.589,4.5,4.5,0,0,0-1.192-.146h-2.41v3.787h.285c1.033,0,1.774,0,2.231-.013a3.027,3.027,0,0,0,1.238-.265,1.543,1.543,0,0,0,.808-.689A2.191,2.191,0,0,0,129.818,144.579Z" transform="translate(33.028 -133.774)" fill="#1a1818"/>
        <path id="Path_822" data-name="Path 822" d="M134.06,149.313H123.633V134.092H134.06v2.946h-6.733v2.622h6.25v2.94h-6.25v3.747h6.733Z" transform="translate(45.821 -133.774)" fill="#1a1818"/>
        <path id="Path_823" data-name="Path 823" d="M140.093,134.092l-5.244,15.221h-4.158l-5.257-15.221h3.893l3.482,10.672,3.482-10.672Z" transform="translate(55.949 -133.774)" fill="#1a1818"/>
        <path id="Path_824" data-name="Path 824" d="M138.375,149.313H127.961V134.092h10.414v2.946h-6.72v2.622h6.236v2.94h-6.236v3.747h6.72Z" transform="translate(70.147 -133.774)" fill="#1a1818"/>
        <path id="Path_825" data-name="Path 825" d="M143.881,149.313h-4.548l-3.913-5.588H133.7v5.588H130V134.092h6.23a13.385,13.385,0,0,1,2.2.159,4.493,4.493,0,0,1,1.708.655,3.9,3.9,0,0,1,1.291,1.317,4.165,4.165,0,0,1,.47,2.052,4.527,4.527,0,0,1-.735,2.734,5.69,5.69,0,0,1-2.105,1.781Zm-5.806-10.56a2.026,2.026,0,0,0-.212-.987,1.6,1.6,0,0,0-.768-.642,2.831,2.831,0,0,0-.887-.192c-.318-.02-.722-.033-1.172-.033H133.7v4.085h1.139a8.8,8.8,0,0,0,1.5-.1,2.119,2.119,0,0,0,1.006-.4,2.039,2.039,0,0,0,.549-.7A2.43,2.43,0,0,0,138.075,138.753Z" transform="translate(81.63 -133.774)" fill="#1a1818"/>
        <path id="Path_826" data-name="Path 826" d="M147,149.313h-3.833l-1-3.092h-5.323l-.993,3.092H132.1l5.316-15.221h4.27Zm-5.72-5.872-1.781-5.455-1.748,5.455Z" transform="translate(93.416 -133.774)" fill="#1a1818"/>
        <path id="Path_827" data-name="Path 827" d="M148.111,148.679a18.167,18.167,0,0,1-2.562.8,13.51,13.51,0,0,1-3.178.391,7.739,7.739,0,0,1-5.76-2.119,7.95,7.95,0,0,1-2.072-5.833,7.861,7.861,0,0,1,2.1-5.714,7.75,7.75,0,0,1,5.839-2.158,12.771,12.771,0,0,1,2.708.271,11.523,11.523,0,0,1,2.86,1.072v3.562h-.41l-.795-.616a9.216,9.216,0,0,0-1.006-.656,5.813,5.813,0,0,0-1.3-.569,5.48,5.48,0,0,0-1.6-.238,4.936,4.936,0,0,0-1.761.311,3.994,3.994,0,0,0-2.41,2.5,5.851,5.851,0,0,0-.358,2.178,5.457,5.457,0,0,0,1.258,3.866,4.971,4.971,0,0,0,3.741,1.337,4.22,4.22,0,0,0,.477-.02c.159,0,.318-.013.47-.026v-2.973h-2.88v-2.887h6.647Z" transform="translate(107.119 -134.022)" fill="#1a1818"/>
        <path id="Path_828" data-name="Path 828" d="M147.506,149.313H137.092V134.092h10.414v2.946h-6.74v2.622h6.243v2.94h-6.243v3.747h6.74Z" transform="translate(121.468 -133.774)" fill="#1a1818"/>
        <path id="Path_829" data-name="Path 829" d="M150.53,149.313H140.156V134.092h3.714v12.255h6.66Z" transform="translate(138.69 -133.774)" fill="#1a1818"/>
        <path id="Path_830" data-name="Path 830" d="M154.537,137.038h-4.5v12.275h-3.707V137.038h-4.489v-2.946h12.692Z" transform="translate(148.183 -133.774)" fill="#1a1818"/>
        <path id="Path_831" data-name="Path 831" d="M157.711,141.719a7.691,7.691,0,0,1-.92,3.787,6.495,6.495,0,0,1-4.628,3.522,13.9,13.9,0,0,1-2.979.285H144.1V134.092h5.23a12.477,12.477,0,0,1,3.039.311,6.883,6.883,0,0,1,2.138.881,6.98,6.98,0,0,1,2.35,2.589A8.364,8.364,0,0,1,157.711,141.719Zm-3.84-.046a5.731,5.731,0,0,0-.53-2.556,3.955,3.955,0,0,0-2.8-2.079,10.89,10.89,0,0,0-1.781-.1h-.947v9.514h.947a11.061,11.061,0,0,0,1.933-.126,3.653,3.653,0,0,0,1.2-.47,3.424,3.424,0,0,0,1.483-1.642A5.744,5.744,0,0,0,153.871,141.673Z" transform="translate(160.852 -133.774)" fill="#1a1818"/>
        <path id="Path_832" data-name="Path 832" d="M150.193,139.808h-3.621v-4.025h3.621Z" transform="translate(174.752 -124.27)" fill="#1a1818"/>
      </g>
    </g>
  </g>
  <g id="Group_218" data-name="Group 218" transform="translate(50.334 0)">
    <g id="Group_216" data-name="Group 216">
      <path id="Path_833" data-name="Path 833" d="M217.764,243.674l-112.124-76.48,112.124-55.441L329.91,167.195Z" transform="translate(-105.641 -111.754)" fill="#004a9c"/>
      <path id="Path_834" data-name="Path 834" d="M207.44,225.8l-99.962-81.891,99.962-31.156,99.975,31.156Z" transform="translate(-95.316 -106.144)" fill="#6298d1"/>
      <path id="Path_835" data-name="Path 835" d="M147.224,154.2v-.019h-3.559V116.247H129.71v50.295h35.854V154.2Z" transform="translate(29.641 -86.499)" fill="#004a9c" stroke="#004a9c" stroke-width="0.521"/>
      <path id="Path_836" data-name="Path 836" d="M142.513,116.247H127.177l-16.971,50.295h14.279l2.25-8.3h15.815l2.25,8.3h14.624Z" transform="translate(-79.98 -86.499)" fill="#004a9c" stroke="#004a9c" stroke-width="0.521"/>
      <path id="Path_837" data-name="Path 837" d="M117.739,166.542h14.033V145.994H149.3V135.811H131.772v-8.735H152.29V116.247H117.739Z" transform="translate(-37.639 -86.499)" fill="#004a9c" stroke="#004a9c" stroke-width="0.521"/>
      <path id="Path_838" data-name="Path 838" d="M162.748,144.259a12.478,12.478,0,0,0-7.183-4.469,10.843,10.843,0,0,0,4.859-3.37c.119-.126.205-.265.311-.4a12.111,12.111,0,0,0,2.191-7.243h0a12.344,12.344,0,0,0-3.079-8.474c-.139-.159-.285-.3-.43-.47-2.324-2.4-5.687-3.588-10.05-3.588H123.19v50.3h24.152a56.322,56.322,0,0,0,6.276-.7,13.284,13.284,0,0,0,5.3-1.635,12.764,12.764,0,0,0,4.489-4.945,14.9,14.9,0,0,0,1.642-7.024v-.007h0A13.289,13.289,0,0,0,162.748,144.259Z" transform="translate(-7.003 -86.5)" fill="#004a9c" stroke="#004a9c" stroke-width="0.521"/>
      <path id="Path_839" data-name="Path 839" d="M129.723,147.318l4.932-18.061,4.939,18.061h-9.871M144.8,166.524h14.625l-16.909-50.31H127.181l-16.975,50.31h14.281l2.251-8.3h15.81Z" transform="translate(-79.98 -86.686)" fill="#fff"/>
      <path id="Path_840" data-name="Path 840" d="M117.739,116.214H152.29v10.823H131.772v8.748H149.3v10.171H131.772v20.566H117.739Z" transform="translate(-37.639 -86.686)" fill="#fff"/>
      <path id="Path_841" data-name="Path 841" d="M137.312,126.4h6.17c2.119,0,3.615.417,4.476,1.245a4.571,4.571,0,0,1,1.271,3.429,4.93,4.93,0,0,1-1.271,3.641c-.861.828-2.39,1.238-4.568,1.238h-6.078V126.4M123.19,166.524h24.152a58.031,58.031,0,0,0,6.276-.7,13.364,13.364,0,0,0,5.3-1.655,12.679,12.679,0,0,0,4.489-4.932,14.878,14.878,0,0,0,1.642-7.024,13.415,13.415,0,0,0-2.3-7.991,12.43,12.43,0,0,0-7.183-4.456,11.044,11.044,0,0,0,4.859-3.363,12.02,12.02,0,0,0,2.5-7.66,12.258,12.258,0,0,0-3.509-8.925c-2.324-2.4-5.687-3.608-10.05-3.608H123.19v50.31m14.122-21H144.4c2.463,0,4.164.43,5.157,1.344a4.708,4.708,0,0,1,1.45,3.588,4.977,4.977,0,0,1-1.49,3.813c-.973.947-2.675,1.43-5.078,1.43h-7.13Z" transform="translate(-7.003 -86.686)" fill="#fff"/>
      <path id="Path_842" data-name="Path 842" d="M129.71,116.214h13.955v37.952h21.9v12.355H129.71Z" transform="translate(29.641 -86.686)" fill="#fff"/>
    </g>
    <g id="Group_217" data-name="Group 217" transform="translate(188.021 85.36)">
      <path id="Path_843" data-name="Path 843" d="M135.446,125.765h2.105a1.631,1.631,0,0,1,1.092.3.967.967,0,0,1,.338.761.984.984,0,0,1-.7.98,3.138,3.138,0,0,1-.947.119h-1.894v-2.165m0,5.833v-2.906h1.02a2.978,2.978,0,0,1,.5.033,1.27,1.27,0,0,1,.4.165,2.5,2.5,0,0,1,.45.444c.159.205.384.516.636.914l.874,1.351h1.132l-1.178-1.774a4.528,4.528,0,0,0-.728-.881,3.141,3.141,0,0,0-.53-.324,2.328,2.328,0,0,0,1.417-.609,1.623,1.623,0,0,0,.45-1.178,1.759,1.759,0,0,0-.271-.986,1.463,1.463,0,0,0-.735-.629,3.874,3.874,0,0,0-1.364-.179h-2.959V131.6Z" transform="translate(-131.123 -122.455)" fill="#1a1818"/>
      <path id="Path_844" data-name="Path 844" d="M140.045,124.647a5.89,5.89,0,1,0,6,5.879,5.94,5.94,0,0,0-6-5.879m-.086,10.911a5.019,5.019,0,1,1,5.118-5.031A5.066,5.066,0,0,1,139.959,135.558Z" transform="translate(-134.04 -124.647)" fill="#1a1818"/>
    </g>
  </g>
</svg>
